  0
SECTION
  2
HEADER
  9
$ACADVER
  1
AC1027
  9
$ACADMAINTVER
 70
105
  9
$DWGCODEPAGE
  3
ANSI_1252
  9
$LASTSAVEDBY
  1
ezdxf
  9
$REQUIREDVERSIONS
160
0
  9
$INSBASE
 10
0.0
 20
0.0
 30
0.0
  9
$EXTMIN
 10
1e+20
 20
1e+20
 30
1e+20
  9
$EXTMAX
 10
-1e+20
 20
-1e+20
 30
-1e+20
  9
$LIMMIN
 10
0.0
 20
0.0
  9
$LIMMAX
 10
420.0
 20
297.0
  9
$ORTHOMODE
 70
0
  9
$REGENMODE
 70
1
  9
$FILLMODE
 70
1
  9
$QTEXTMODE
 70
0
  9
$MIRRTEXT
 70
1
  9
$LTSCALE
 40
1.0
  9
$ATTMODE
 70
1
  9
$TEXTSIZE
 40
2.5
  9
$TRACEWID
 40
1.0
  9
$TEXTSTYLE
  7
OpenSans
  9
$CLAYER
  8
0
  9
$CELTYPE
  6
ByLayer
  9
$CECOLOR
 62
256
  9
$CELTSCALE
 40
1.0
  9
$DISPSILH
 70
0
  9
$DIMSCALE
 40
1.0
  9
$DIMASZ
 40
0.175
  9
$DIMEXO
 40
0.125
  9
$DIMDLI
 40
3.75
  9
$DIMRND
 40
0.0
  9
$DIMDLE
 40
0.0
  9
$DIMEXE
 40
0.375
  9
$DIMTP
 40
0.0
  9
$DIMTM
 40
0.0
  9
$DIMTXT
 40
0.25
  9
$DIMCEN
 40
2.5
  9
$DIMTSZ
 40
0.0
  9
$DIMTOL
 70
0
  9
$DIMLIM
 70
0
  9
$DIMTIH
 70
0
  9
$DIMTOH
 70
0
  9
$DIMSE1
 70
0
  9
$DIMSE2
 70
0
  9
$DIMTAD
 70
1
  9
$DIMZIN
 70
12
  9
$DIMBLK
  1
ARCHTICK
  9
$DIMASO
 70
1
  9
$DIMSHO
 70
1
  9
$DIMPOST
  1

  9
$DIMAPOST
  1

  9
$DIMALT
 70
0
  9
$DIMALTD
 70
3
  9
$DIMALTF
 40
0.03937007874
  9
$DIMLFAC
 40
100.0
  9
$DIMTOFL
 70
1
  9
$DIMTVP
 40
0.0
  9
$DIMTIX
 70
0
  9
$DIMSOXD
 70
0
  9
$DIMSAH
 70
0
  9
$DIMBLK1
  1

  9
$DIMBLK2
  1

  9
$DIMSTYLE
  2
EZDXF
  9
$DIMCLRD
 70
0
  9
$DIMCLRE
 70
0
  9
$DIMCLRT
 70
0
  9
$DIMTFAC
 40
0.5
  9
$DIMGAP
 40
0.1
  9
$DIMJUST
 70
0
  9
$DIMSD1
 70
0
  9
$DIMSD2
 70
0
  9
$DIMTOLJ
 70
0
  9
$DIMTZIN
 70
8
  9
$DIMALTZ
 70
0
  9
$DIMALTTZ
 70
0
  9
$DIMUPT
 70
1
  9
$DIMDEC
 70
2
  9
$DIMTDEC
 70
2
  9
$DIMALTU
 70
2
  9
$DIMALTTD
 70
3
  9
$DIMTXSTY
  7
OpenSansCondensed-Light
  9
$DIMAUNIT
 70
0
  9
$DIMADEC
 70
2
  9
$DIMALTRND
 40
0.0
  9
$DIMAZIN
 70
3
  9
$DIMDSEP
 70
46
  9
$DIMATFIT
 70
3
  9
$DIMFRAC
 70
0
  9
$DIMLDRBLK
  1

  9
$DIMLUNIT
 70
2
  9
$DIMLWD
 70
-2
  9
$DIMLWE
 70
-2
  9
$DIMTMOVE
 70
2
  9
$DIMFXL
 40
1.0
  9
$DIMFXLON
 70
0
  9
$DIMJOGANG
 40
0.785398163397
  9
$DIMTFILL
 70
0
  9
$DIMTFILLCLR
 70
0
  9
$DIMARCSYM
 70
0
  9
$DIMLTYPE
  6

  9
$DIMLTEX1
  6

  9
$DIMLTEX2
  6

  9
$DIMTXTDIRECTION
 70
0
  9
$LUNITS
 70
2
  9
$LUPREC
 70
4
  9
$SKETCHINC
 40
1.0
  9
$FILLETRAD
 40
10.0
  9
$AUNITS
 70
0
  9
$AUPREC
 70
2
  9
$MENU
  1
.
  9
$ELEVATION
 40
0.0
  9
$PELEVATION
 40
0.0
  9
$THICKNESS
 40
0.0
  9
$LIMCHECK
 70
0
  9
$CHAMFERA
 40
0.0
  9
$CHAMFERB
 40
0.0
  9
$CHAMFERC
 40
0.0
  9
$CHAMFERD
 40
0.0
  9
$SKPOLY
 70
0
  9
$TDCREATE
 40
2460910.650300926
  9
$TDUCREATE
 40
2458532.153996898
  9
$TDUPDATE
 40
2460910.650300926
  9
$TDUUPDATE
 40
2458532.1544311
  9
$TDINDWG
 40
0.0
  9
$TDUSRTIMER
 40
0.0
  9
$USRTIMER
 70
1
  9
$ANGBASE
 50
0.0
  9
$ANGDIR
 70
0
  9
$PDMODE
 70
0
  9
$PDSIZE
 40
0.0
  9
$PLINEWID
 40
0.0
  9
$SPLFRAME
 70
0
  9
$SPLINETYPE
 70
6
  9
$SPLINESEGS
 70
8
  9
$HANDSEED
  5
8F
  9
$SURFTAB1
 70
6
  9
$SURFTAB2
 70
6
  9
$SURFTYPE
 70
6
  9
$SURFU
 70
6
  9
$SURFV
 70
6
  9
$UCSBASE
  2

  9
$UCSNAME
  2

  9
$UCSORG
 10
0.0
 20
0.0
 30
0.0
  9
$UCSXDIR
 10
1.0
 20
0.0
 30
0.0
  9
$UCSYDIR
 10
0.0
 20
1.0
 30
0.0
  9
$UCSORTHOREF
  2

  9
$UCSORTHOVIEW
 70
0
  9
$UCSORGTOP
 10
0.0
 20
0.0
 30
0.0
  9
$UCSORGBOTTOM
 10
0.0
 20
0.0
 30
0.0
  9
$UCSORGLEFT
 10
0.0
 20
0.0
 30
0.0
  9
$UCSORGRIGHT
 10
0.0
 20
0.0
 30
0.0
  9
$UCSORGFRONT
 10
0.0
 20
0.0
 30
0.0
  9
$UCSORGBACK
 10
0.0
 20
0.0
 30
0.0
  9
$PUCSBASE
  2

  9
$PUCSNAME
  2

  9
$PUCSORG
 10
0.0
 20
0.0
 30
0.0
  9
$PUCSXDIR
 10
1.0
 20
0.0
 30
0.0
  9
$PUCSYDIR
 10
0.0
 20
1.0
 30
0.0
  9
$PUCSORTHOREF
  2

  9
$PUCSORTHOVIEW
 70
0
  9
$PUCSORGTOP
 10
0.0
 20
0.0
 30
0.0
  9
$PUCSORGBOTTOM
 10
0.0
 20
0.0
 30
0.0
  9
$PUCSORGLEFT
 10
0.0
 20
0.0
 30
0.0
  9
$PUCSORGRIGHT
 10
0.0
 20
0.0
 30
0.0
  9
$PUCSORGFRONT
 10
0.0
 20
0.0
 30
0.0
  9
$PUCSORGBACK
 10
0.0
 20
0.0
 30
0.0
  9
$USERI1
 70
0
  9
$USERI2
 70
0
  9
$USERI3
 70
0
  9
$USERI4
 70
0
  9
$USERI5
 70
0
  9
$USERR1
 40
0.0
  9
$USERR2
 40
0.0
  9
$USERR3
 40
0.0
  9
$USERR4
 40
0.0
  9
$USERR5
 40
0.0
  9
$WORLDVIEW
 70
1
  9
$SHADEDGE
 70
3
  9
$SHADEDIF
 70
70
  9
$TILEMODE
 70
1
  9
$MAXACTVP
 70
64
  9
$PINSBASE
 10
0.0
 20
0.0
 30
0.0
  9
$PLIMCHECK
 70
0
  9
$PEXTMIN
 10
1e+20
 20
1e+20
 30
1e+20
  9
$PEXTMAX
 10
-1e+20
 20
-1e+20
 30
-1e+20
  9
$PLIMMIN
 10
0.0
 20
0.0
  9
$PLIMMAX
 10
420.0
 20
297.0
  9
$UNITMODE
 70
0
  9
$VISRETAIN
 70
1
  9
$PLINEGEN
 70
0
  9
$PSLTSCALE
 70
1
  9
$TREEDEPTH
 70
3020
  9
$CMLSTYLE
  2
Standard
  9
$CMLJUST
 70
0
  9
$CMLSCALE
 40
20.0
  9
$PROXYGRAPHICS
 70
1
  9
$MEASUREMENT
 70
1
  9
$CELWEIGHT
370
-1
  9
$ENDCAPS
280
0
  9
$JOINSTYLE
280
0
  9
$LWDISPLAY
290
0
  9
$INSUNITS
 70
6
  9
$HYPERLINKBASE
  1

  9
$STYLESHEET
  1

  9
$XEDIT
290
1
  9
$CEPSNTYPE
380
0
  9
$PSTYLEMODE
290
1
  9
$FINGERPRINTGUID
  2
{D6A376F2-FEA6-4353-AA83-320421183120}
  9
$VERSIONGUID
  2
{A5DECEB4-4DB1-415E-99AC-8C4037668C1B}
  9
$EXTNAMES
290
1
  9
$PSVPSCALE
 40
0.0
  9
$OLESTARTUP
290
0
  9
$SORTENTS
280
127
  9
$INDEXCTL
280
0
  9
$HIDETEXT
280
1
  9
$XCLIPFRAME
280
1
  9
$HALOGAP
280
0
  9
$OBSCOLOR
 70
257
  9
$OBSLTYPE
280
0
  9
$INTERSECTIONDISPLAY
280
0
  9
$INTERSECTIONCOLOR
 70
257
  9
$DIMASSOC
280
2
  9
$PROJECTNAME
  1

  9
$CAMERADISPLAY
290
0
  9
$LENSLENGTH
 40
50.0
  9
$CAMERAHEIGHT
 40
0.0
  9
$STEPSPERSEC
 40
24.0
  9
$STEPSIZE
 40
100.0
  9
$3DDWFPREC
 40
2.0
  9
$PSOLWIDTH
 40
0.005
  9
$PSOLHEIGHT
 40
0.08
  9
$LOFTANG1
 40
1.570796326795
  9
$LOFTANG2
 40
1.570796326795
  9
$LOFTMAG1
 40
0.0
  9
$LOFTMAG2
 40
0.0
  9
$LOFTPARAM
 70
7
  9
$LOFTNORMALS
280
1
  9
$LATITUDE
 40
37.795
  9
$LONGITUDE
 40
-122.394
  9
$NORTHDIRECTION
 40
0.0
  9
$TIMEZONE
 70
-8000
  9
$LIGHTGLYPHDISPLAY
280
1
  9
$TILEMODELIGHTSYNCH
280
1
  9
$CMATERIAL
347
20
  9
$SOLIDHIST
280
0
  9
$SHOWHIST
280
1
  9
$DWFFRAME
280
2
  9
$DGNFRAME
280
2
  9
$REALWORLDSCALE
290
1
  9
$INTERFERECOLOR
 62
256
  9
$CSHADOW
280
0
  9
$SHADOWPLANELOCATION
 40
0.0
  0
ENDSEC
  0
SECTION
  2
CLASSES
  0
CLASS
  1
ACDBDICTIONARYWDFLT
  2
AcDbDictionaryWithDefault
  3
ObjectDBX Classes
 90
0
 91
0
280
0
281
0
  0
CLASS
  1
SUN
  2
AcDbSun
  3
SCENEOE
 90
1153
 91
0
280
0
281
0
  0
CLASS
  1
VISUALSTYLE
  2
AcDbVisualStyle
  3
ObjectDBX Classes
 90
4095
 91
0
280
0
281
0
  0
CLASS
  1
MATERIAL
  2
AcDbMaterial
  3
ObjectDBX Classes
 90
1153
 91
0
280
0
281
0
  0
CLASS
  1
SCALE
  2
AcDbScale
  3
ObjectDBX Classes
 90
1153
 91
0
280
0
281
0
  0
CLASS
  1
TABLESTYLE
  2
AcDbTableStyle
  3
ObjectDBX Classes
 90
4095
 91
0
280
0
281
0
  0
CLASS
  1
MLEADERSTYLE
  2
AcDbMLeaderStyle
  3
ACDB_MLEADERSTYLE_CLASS
 90
4095
 91
0
280
0
281
0
  0
CLASS
  1
DICTIONARYVAR
  2
AcDbDictionaryVar
  3
ObjectDBX Classes
 90
0
 91
0
280
0
281
0
  0
CLASS
  1
CELLSTYLEMAP
  2
AcDbCellStyleMap
  3
ObjectDBX Classes
 90
1152
 91
0
280
0
281
0
  0
CLASS
  1
MENTALRAYRENDERSETTINGS
  2
AcDbMentalRayRenderSettings
  3
SCENEOE
 90
1024
 91
0
280
0
281
0
  0
CLASS
  1
ACDBDETAILVIEWSTYLE
  2
AcDbDetailViewStyle
  3
ObjectDBX Classes
 90
1025
 91
0
280
0
281
0
  0
CLASS
  1
ACDBSECTIONVIEWSTYLE
  2
AcDbSectionViewStyle
  3
ObjectDBX Classes
 90
1025
 91
0
280
0
281
0
  0
CLASS
  1
RASTERVARIABLES
  2
AcDbRasterVariables
  3
ISM
 90
0
 91
0
280
0
281
0
  0
CLASS
  1
LAYOUT
  2
AcDbLayout
  3
ObjectDBX Classes
 90
0
 91
0
280
0
281
0
  0
CLASS
  1
ACDBPLACEHOLDER
  2
AcDbPlaceHolder
  3
ObjectDBX Classes
 90
0
 91
0
280
0
281
0
  0
ENDSEC
  0
SECTION
  2
TABLES
  0
TABLE
  2
VPORT
  5
8
330
0
100
AcDbSymbolTable
 70
1
  0
VPORT
  5
23
330
8
100
AcDbSymbolTableRecord
100
AcDbViewportTableRecord
  2
*Active
 70
0
 10
0.0
 20
0.0
 11
1.0
 21
1.0
 12
0.0
 22
0.0
 13
0.0
 23
0.0
 14
0.5
 24
0.5
 15
0.5
 25
0.5
 16
0.0
 26
0.0
 36
1.0
 17
0.0
 27
0.0
 37
0.0
 40
1000.0
 41
1.34
 42
50.0
 43
0.0
 44
0.0
 50
0.0
 51
0.0
 71
0
 72
1000
 73
1
 74
3
 75
0
 76
0
 77
0
 78
0
281
0
 65
0
146
0.0
  0
ENDTAB
  0
TABLE
  2
LTYPE
  5
2
330
0
100
AcDbSymbolTable
 70
21
  0
LTYPE
  5
24
330
2
100
AcDbSymbolTableRecord
100
AcDbLinetypeTableRecord
  2
ByBlock
 70
0
  3

 72
65
 73
0
 40
0.0
  0
LTYPE
  5
25
330
2
100
AcDbSymbolTableRecord
100
AcDbLinetypeTableRecord
  2
ByLayer
 70
0
  3

 72
65
 73
0
 40
0.0
  0
LTYPE
  5
26
330
2
100
AcDbSymbolTableRecord
100
AcDbLinetypeTableRecord
  2
Continuous
 70
0
  3

 72
65
 73
0
 40
0.0
  0
LTYPE
  5
2F
330
2
100
AcDbSymbolTableRecord
100
AcDbLinetypeTableRecord
  2
CENTER
 70
0
  3
Center ____ _ ____ _ ____ _ ____ _ ____ _ ____
 72
65
 73
4
 40
5.08
 49
3.175
 74
0
 49
-0.635
 74
0
 49
0.635
 74
0
 49
-0.635
 74
0
  0
LTYPE
  5
30
330
2
100
AcDbSymbolTableRecord
100
AcDbLinetypeTableRecord
  2
CENTERX2
 70
0
  3
Center (2x) ________  __  ________  __  ________
 72
65
 73
4
 40
8.89
 49
6.35
 74
0
 49
-0.635
 74
0
 49
1.27
 74
0
 49
-0.635
 74
0
  0
LTYPE
  5
31
330
2
100
AcDbSymbolTableRecord
100
AcDbLinetypeTableRecord
  2
CENTER2
 70
0
  3
Center (.5x) ____ _ ____ _ ____ _ ____ _ ____
 72
65
 73
4
 40
2.54
 49
1.587
 74
0
 49
-0.318
 74
0
 49
0.318
 74
0
 49
-0.318
 74
0
  0
LTYPE
  5
32
330
2
100
AcDbSymbolTableRecord
100
AcDbLinetypeTableRecord
  2
DASHED
 70
0
  3
Dashed __ __ __ __ __ __ __ __ __ __ __ __ __ _
 72
65
 73
2
 40
1.524
 49
1.27
 74
0
 49
-0.254
 74
0
  0
LTYPE
  5
33
330
2
100
AcDbSymbolTableRecord
100
AcDbLinetypeTableRecord
  2
DASHEDX2
 70
0
  3
Dashed (2x) ____  ____  ____  ____  ____  ____
 72
65
 73
2
 40
3.048
 49
2.54
 74
0
 49
-0.508
 74
0
  0
LTYPE
  5
34
330
2
100
AcDbSymbolTableRecord
100
AcDbLinetypeTableRecord
  2
DASHED2
 70
0
  3
Dashed (.5x) _ _ _ _ _ _ _ _ _ _ _ _ _ _
 72
65
 73
2
 40
0.762
 49
0.635
 74
0
 49
-0.127
 74
0
  0
LTYPE
  5
35
330
2
100
AcDbSymbolTableRecord
100
AcDbLinetypeTableRecord
  2
PHANTOM
 70
0
  3
Phantom ______  __  __  ______  __  __  ______
 72
65
 73
6
 40
6.35
 49
3.175
 74
0
 49
-0.635
 74
0
 49
0.635
 74
0
 49
-0.635
 74
0
 49
0.635
 74
0
 49
-0.635
 74
0
  0
LTYPE
  5
36
330
2
100
AcDbSymbolTableRecord
100
AcDbLinetypeTableRecord
  2
PHANTOMX2
 70
0
  3
Phantom (2x)____________    ____    ____    ____________
 72
65
 73
6
 40
10.795
 49
6.35
 74
0
 49
-0.635
 74
0
 49
1.27
 74
0
 49
-0.635
 74
0
 49
1.27
 74
0
 49
-0.635
 74
0
  0
LTYPE
  5
37
330
2
100
AcDbSymbolTableRecord
100
AcDbLinetypeTableRecord
  2
PHANTOM2
 70
0
  3
Phantom (.5x) ___ _ _ ___ _ _ ___ _ _ ___ _ _ ___
 72
65
 73
6
 40
3.175
 49
1.587
 74
0
 49
-0.318
 74
0
 49
0.318
 74
0
 49
-0.318
 74
0
 49
0.318
 74
0
 49
-0.318
 74
0
  0
LTYPE
  5
38
330
2
100
AcDbSymbolTableRecord
100
AcDbLinetypeTableRecord
  2
DASHDOT
 70
0
  3
Dash dot __ . __ . __ . __ . __ . __ . __ . __
 72
65
 73
4
 40
3.556
 49
2.54
 74
0
 49
-0.508
 74
0
 49
0.0
 74
0
 49
-0.508
 74
0
  0
LTYPE
  5
39
330
2
100
AcDbSymbolTableRecord
100
AcDbLinetypeTableRecord
  2
DASHDOTX2
 70
0
  3
Dash dot (2x) ____  .  ____  .  ____  .  ____
 72
65
 73
4
 40
6.096
 49
5.08
 74
0
 49
-0.508
 74
0
 49
0.0
 74
0
 49
-0.508
 74
0
  0
LTYPE
  5
3A
330
2
100
AcDbSymbolTableRecord
100
AcDbLinetypeTableRecord
  2
DASHDOT2
 70
0
  3
Dash dot (.5x) _ . _ . _ . _ . _ . _ . _ . _
 72
65
 73
4
 40
1.778
 49
1.27
 74
0
 49
-0.254
 74
0
 49
0.0
 74
0
 49
-0.254
 74
0
  0
LTYPE
  5
3B
330
2
100
AcDbSymbolTableRecord
100
AcDbLinetypeTableRecord
  2
DOT
 70
0
  3
Dot .  .  .  .  .  .  .  .  .  .  .  .  .  .  .  .
 72
65
 73
2
 40
0.508
 49
0.0
 74
0
 49
-0.508
 74
0
  0
LTYPE
  5
3C
330
2
100
AcDbSymbolTableRecord
100
AcDbLinetypeTableRecord
  2
DOTX2
 70
0
  3
Dot (2x) .    .    .    .    .    .    .    . 
 72
65
 73
2
 40
1.016
 49
0.0
 74
0
 49
-1.016
 74
0
  0
LTYPE
  5
3D
330
2
100
AcDbSymbolTableRecord
100
AcDbLinetypeTableRecord
  2
DOT2
 70
0
  3
Dot (.5) . . . . . . . . . . . . . . . . . . . 
 72
65
 73
2
 40
0.254
 49
0.0
 74
0
 49
-0.254
 74
0
  0
LTYPE
  5
3E
330
2
100
AcDbSymbolTableRecord
100
AcDbLinetypeTableRecord
  2
DIVIDE
 70
0
  3
Divide __ . . __ . . __ . . __ . . __ . . __
 72
65
 73
6
 40
4.064
 49
2.54
 74
0
 49
-0.508
 74
0
 49
0.0
 74
0
 49
-0.508
 74
0
 49
0.0
 74
0
 49
-0.508
 74
0
  0
LTYPE
  5
3F
330
2
100
AcDbSymbolTableRecord
100
AcDbLinetypeTableRecord
  2
DIVIDEX2
 70
0
  3
Divide (2x) ____  . .  ____  . .  ____  . .  ____
 72
65
 73
6
 40
6.604
 49
5.08
 74
0
 49
-0.508
 74
0
 49
0.0
 74
0
 49
-0.508
 74
0
 49
0.0
 74
0
 49
-0.508
 74
0
  0
LTYPE
  5
40
330
2
100
AcDbSymbolTableRecord
100
AcDbLinetypeTableRecord
  2
DIVIDE2
 70
0
  3
Divide(.5x) _ . _ . _ . _ . _ . _ . _ . _
 72
65
 73
6
 40
2.032
 49
1.27
 74
0
 49
-0.254
 74
0
 49
0.0
 74
0
 49
-0.254
 74
0
 49
0.0
 74
0
 49
-0.254
 74
0
  0
ENDTAB
  0
TABLE
  2
LAYER
  5
1
330
0
100
AcDbSymbolTable
 70
3
  0
LAYER
  5
27
330
1
100
AcDbSymbolTableRecord
100
AcDbLayerTableRecord
  2
0
 70
0
 62
7
  6
Continuous
370
-3
390
13
347
21
  0
LAYER
  5
28
330
1
100
AcDbSymbolTableRecord
100
AcDbLayerTableRecord
  2
Defpoints
 70
0
 62
7
  6
Continuous
290
0
370
-3
390
13
347
21
  0
LAYER
  5
8A
330
1
100
AcDbSymbolTableRecord
100
AcDbLayerTableRecord
  2
OUTER
 70
0
 62
7
  6
Continuous
370
25
390
13
347
21
  0
ENDTAB
  0
TABLE
  2
STYLE
  5
5
330
0
100
AcDbSymbolTable
 70
26
  0
STYLE
  5
29
330
5
100
AcDbSymbolTableRecord
100
AcDbTextStyleTableRecord
  2
Standard
 70
0
 40
0.0
 41
1.0
 50
0.0
 71
0
 42
2.5
  3
txt
  4

  0
STYLE
  5
41
330
5
100
AcDbSymbolTableRecord
100
AcDbTextStyleTableRecord
  2
OpenSans-Light
 70
0
 40
0.0
 41
1.0
 50
0.0
 71
0
 42
2.5
  3
OpenSans-Light.ttf
  4

  0
STYLE
  5
42
330
5
100
AcDbSymbolTableRecord
100
AcDbTextStyleTableRecord
  2
OpenSans-Light-Italic
 70
0
 40
0.0
 41
1.0
 50
0.0
 71
0
 42
2.5
  3
OpenSans-LightItalic.ttf
  4

  0
STYLE
  5
43
330
5
100
AcDbSymbolTableRecord
100
AcDbTextStyleTableRecord
  2
OpenSans
 70
0
 40
0.0
 41
1.0
 50
0.0
 71
0
 42
2.5
  3
OpenSans-Regular.ttf
  4

  0
STYLE
  5
44
330
5
100
AcDbSymbolTableRecord
100
AcDbTextStyleTableRecord
  2
OpenSans-Italic
 70
0
 40
0.0
 41
1.0
 50
0.0
 71
0
 42
2.5
  3
OpenSans-Italic.ttf
  4

  0
STYLE
  5
45
330
5
100
AcDbSymbolTableRecord
100
AcDbTextStyleTableRecord
  2
OpenSans-SemiBold
 70
0
 40
0.0
 41
1.0
 50
0.0
 71
0
 42
2.5
  3
OpenSans-SemiBold.ttf
  4

  0
STYLE
  5
46
330
5
100
AcDbSymbolTableRecord
100
AcDbTextStyleTableRecord
  2
OpenSans-SemiBoldItalic
 70
0
 40
0.0
 41
1.0
 50
0.0
 71
0
 42
2.5
  3
OpenSans-SemiBoldItalic.ttf
  4

  0
STYLE
  5
47
330
5
100
AcDbSymbolTableRecord
100
AcDbTextStyleTableRecord
  2
OpenSans-Bold
 70
0
 40
0.0
 41
1.0
 50
0.0
 71
0
 42
2.5
  3
OpenSans-Bold.ttf
  4

  0
STYLE
  5
48
330
5
100
AcDbSymbolTableRecord
100
AcDbTextStyleTableRecord
  2
OpenSans-BoldItalic
 70
0
 40
0.0
 41
1.0
 50
0.0
 71
0
 42
2.5
  3
OpenSans-BoldItalic.ttf
  4

  0
STYLE
  5
49
330
5
100
AcDbSymbolTableRecord
100
AcDbTextStyleTableRecord
  2
OpenSans-ExtraBold
 70
0
 40
0.0
 41
1.0
 50
0.0
 71
0
 42
2.5
  3
OpenSans-ExtraBold.ttf
  4

  0
STYLE
  5
4A
330
5
100
AcDbSymbolTableRecord
100
AcDbTextStyleTableRecord
  2
OpenSans-ExtraBoldItalic
 70
0
 40
0.0
 41
1.0
 50
0.0
 71
0
 42
2.5
  3
OpenSans-ExtraBoldItalic.ttf
  4

  0
STYLE
  5
4B
330
5
100
AcDbSymbolTableRecord
100
AcDbTextStyleTableRecord
  2
OpenSansCondensed-Bold
 70
0
 40
0.0
 41
1.0
 50
0.0
 71
0
 42
2.5
  3
OpenSansCondensed-Bold.ttf
  4

  0
STYLE
  5
4C
330
5
100
AcDbSymbolTableRecord
100
AcDbTextStyleTableRecord
  2
OpenSansCondensed-Light
 70
0
 40
0.0
 41
1.0
 50
0.0
 71
0
 42
2.5
  3
OpenSansCondensed-Light.ttf
  4

  0
STYLE
  5
4D
330
5
100
AcDbSymbolTableRecord
100
AcDbTextStyleTableRecord
  2
OpenSansCondensed-Italic
 70
0
 40
0.0
 41
1.0
 50
0.0
 71
0
 42
2.5
  3
OpenSansCondensed-LightItalic.ttf
  4

  0
STYLE
  5
4E
330
5
100
AcDbSymbolTableRecord
100
AcDbTextStyleTableRecord
  2
LiberationSans
 70
0
 40
0.0
 41
1.0
 50
0.0
 71
0
 42
2.5
  3
LiberationSans-Regular.ttf
  4

  0
STYLE
  5
4F
330
5
100
AcDbSymbolTableRecord
100
AcDbTextStyleTableRecord
  2
LiberationSans-Bold
 70
0
 40
0.0
 41
1.0
 50
0.0
 71
0
 42
2.5
  3
LiberationSans-Bold.ttf
  4

  0
STYLE
  5
50
330
5
100
AcDbSymbolTableRecord
100
AcDbTextStyleTableRecord
  2
LiberationSans-BoldItalic
 70
0
 40
0.0
 41
1.0
 50
0.0
 71
0
 42
2.5
  3
LiberationSans-BoldItalic.ttf
  4

  0
STYLE
  5
51
330
5
100
AcDbSymbolTableRecord
100
AcDbTextStyleTableRecord
  2
LiberationSans-Italic
 70
0
 40
0.0
 41
1.0
 50
0.0
 71
0
 42
2.5
  3
LiberationSans-Italic.ttf
  4

  0
STYLE
  5
52
330
5
100
AcDbSymbolTableRecord
100
AcDbTextStyleTableRecord
  2
LiberationSerif
 70
0
 40
0.0
 41
1.0
 50
0.0
 71
0
 42
2.5
  3
LiberationSerif-Regular.ttf
  4

  0
STYLE
  5
53
330
5
100
AcDbSymbolTableRecord
100
AcDbTextStyleTableRecord
  2
LiberationSerif-Bold
 70
0
 40
0.0
 41
1.0
 50
0.0
 71
0
 42
2.5
  3
LiberationSerif-Bold.ttf
  4

  0
STYLE
  5
54
330
5
100
AcDbSymbolTableRecord
100
AcDbTextStyleTableRecord
  2
LiberationSerif-BoldItalic
 70
0
 40
0.0
 41
1.0
 50
0.0
 71
0
 42
2.5
  3
LiberationSerif-BoldItalic.ttf
  4

  0
STYLE
  5
55
330
5
100
AcDbSymbolTableRecord
100
AcDbTextStyleTableRecord
  2
LiberationSerif-Italic
 70
0
 40
0.0
 41
1.0
 50
0.0
 71
0
 42
2.5
  3
LiberationSerif-Italic.ttf
  4

  0
STYLE
  5
56
330
5
100
AcDbSymbolTableRecord
100
AcDbTextStyleTableRecord
  2
LiberationMono
 70
0
 40
0.0
 41
1.0
 50
0.0
 71
0
 42
2.5
  3
LiberationMono-Regular.ttf
  4

  0
STYLE
  5
57
330
5
100
AcDbSymbolTableRecord
100
AcDbTextStyleTableRecord
  2
LiberationMono-Bold
 70
0
 40
0.0
 41
1.0
 50
0.0
 71
0
 42
2.5
  3
LiberationMono-Bold.ttf
  4

  0
STYLE
  5
58
330
5
100
AcDbSymbolTableRecord
100
AcDbTextStyleTableRecord
  2
LiberationMono-BoldItalic
 70
0
 40
0.0
 41
1.0
 50
0.0
 71
0
 42
2.5
  3
LiberationMono-BoldItalic.ttf
  4

  0
STYLE
  5
59
330
5
100
AcDbSymbolTableRecord
100
AcDbTextStyleTableRecord
  2
LiberationMono-Italic
 70
0
 40
0.0
 41
1.0
 50
0.0
 71
0
 42
2.5
  3
LiberationMono-Italic.ttf
  4

  0
ENDTAB
  0
TABLE
  2
VIEW
  5
7
330
0
100
AcDbSymbolTable
 70
0
  0
ENDTAB
  0
TABLE
  2
UCS
  5
6
330
0
100
AcDbSymbolTable
 70
0
  0
ENDTAB
  0
TABLE
  2
APPID
  5
3
330
0
100
AcDbSymbolTable
 70
3
  0
APPID
  5
2A
330
3
100
AcDbSymbolTableRecord
100
AcDbRegAppTableRecord
  2
ACAD
 70
0
  0
APPID
  5
8C
330
3
100
AcDbSymbolTableRecord
100
AcDbRegAppTableRecord
  2
HATCHBACKGROUNDCOLOR
 70
0
  0
APPID
  5
8D
330
3
100
AcDbSymbolTableRecord
100
AcDbRegAppTableRecord
  2
EZDXF
 70
0
  0
ENDTAB
  0
TABLE
  2
DIMSTYLE
  5
4
330
0
100
AcDbSymbolTable
 70
12
100
AcDbDimStyleTable
  0
DIMSTYLE
105
2B
330
4
100
AcDbSymbolTableRecord
100
AcDbDimStyleTableRecord
  2
Standard
 70
0
 40
1.0
 41
2.5
 42
0.625
 43
3.75
 44
1.25
 45
0.0
 46
0.0
 47
0.0
 48
0.0
 49
2.5
140
2.5
141
2.5
142
0.0
143
0.03937007874
144
1.0
145
0.0
146
1.0
147
0.625
148
0.0
 69
0
 70
0
 71
0
 72
0
 73
0
 74
0
 75
0
 76
0
 77
1
 78
8
 79
3
170
0
171
3
172
1
173
0
174
0
175
0
176
0
177
0
178
0
179
2
271
2
272
2
273
2
274
3
275
0
276
0
277
2
278
44
279
0
280
0
281
0
282
0
283
0
284
8
285
0
286
0
288
0
289
3
290
0
371
-2
372
-2
  0
DIMSTYLE
105
73
330
4
100
AcDbSymbolTableRecord
100
AcDbDimStyleTableRecord
  2
EZDXF
 70
0
 40
1.0
 41
0.175
 42
0.125
 43
3.75
 44
0.375
 45
0.0
 46
0.0
 47
0.0
 48
0.0
 49
2.5
140
0.25
141
2.5
142
0.0
143
0.03937007874
144
100.0
145
0.0
146
0.5
147
0.1
148
0.0
 69
0
 70
0
 71
0
 72
0
 73
0
 74
0
 75
0
 76
0
 77
1
 78
12
 79
3
170
0
171
3
172
1
173
0
174
0
175
0
176
0
177
0
178
0
179
2
271
2
272
2
273
2
274
3
275
0
276
0
277
2
278
46
279
2
280
0
281
0
282
0
283
0
284
8
285
0
286
0
288
1
289
3
290
0
340
4C
342
74
371
-2
372
-2
  0
DIMSTYLE
105
7C
330
4
100
AcDbSymbolTableRecord
100
AcDbDimStyleTableRecord
  2
EZ_M_100_H25_CM
 70
0
 40
1.0
 41
0.25
 42
0.125
 43
3.75
 44
0.375
 45
0.0
 46
0.0
 47
0.0
 48
0.0
 49
2.5
140
0.25
141
2.5
142
0.125
143
0.03937007874
144
100.0
145
0.0
146
0.5
147
0.1
148
0.0
 69
0
 70
0
 71
0
 72
0
 73
0
 74
0
 75
0
 76
0
 77
1
 78
12
 79
3
170
0
171
3
172
1
173
0
174
0
175
0
176
0
177
0
178
0
179
2
271
2
272
2
273
2
274
3
275
0
276
0
277
2
278
46
279
2
280
0
281
0
282
0
283
0
284
8
285
0
286
0
288
1
289
3
290
0
340
4C
371
-2
372
-2
  0
DIMSTYLE
105
7D
330
4
100
AcDbSymbolTableRecord
100
AcDbDimStyleTableRecord
  2
EZ_M_50_H25_CM
 70
0
 40
1.0
 41
0.125
 42
0.0625
 43
3.75
 44
0.1875
 45
0.0
 46
0.0
 47
0.0
 48
0.0
 49
2.5
140
0.125
141
2.5
142
0.0625
143
0.03937007874
144
100.0
145
0.0
146
0.5
147
0.05
148
0.0
 69
0
 70
0
 71
0
 72
0
 73
0
 74
0
 75
0
 76
0
 77
1
 78
12
 79
3
170
0
171
3
172
1
173
0
174
0
175
0
176
0
177
0
178
0
179
2
271
2
272
2
273
2
274
3
275
0
276
0
277
2
278
46
279
2
280
0
281
0
282
0
283
0
284
8
285
0
286
0
288
1
289
3
290
0
340
4C
371
-2
372
-2
  0
DIMSTYLE
105
7E
330
4
100
AcDbSymbolTableRecord
100
AcDbDimStyleTableRecord
  2
EZ_M_25_H25_CM
 70
0
 40
1.0
 41
0.0625
 42
0.03125
 43
3.75
 44
0.09375
 45
0.0
 46
0.0
 47
0.0
 48
0.0
 49
2.5
140
0.0625
141
2.5
142
0.03125
143
0.03937007874
144
100.0
145
0.0
146
0.5
147
0.025
148
0.0
 69
0
 70
0
 71
0
 72
0
 73
0
 74
0
 75
0
 76
0
 77
1
 78
12
 79
3
170
0
171
3
172
1
173
0
174
0
175
0
176
0
177
0
178
0
179
2
271
2
272
2
273
2
274
3
275
0
276
0
277
2
278
46
279
2
280
0
281
0
282
0
283
0
284
8
285
0
286
0
288
1
289
3
290
0
340
4C
371
-2
372
-2
  0
DIMSTYLE
105
7F
330
4
100
AcDbSymbolTableRecord
100
AcDbDimStyleTableRecord
  2
EZ_M_20_H25_CM
 70
0
 40
1.0
 41
0.05
 42
0.025
 43
3.75
 44
0.07500000000000001
 45
0.0
 46
0.0
 47
0.0
 48
0.0
 49
2.5
140
0.05
141
2.5
142
0.025
143
0.03937007874
144
100.0
145
0.0
146
0.5
147
0.020000000000000004
148
0.0
 69
0
 70
0
 71
0
 72
0
 73
0
 74
0
 75
0
 76
0
 77
1
 78
12
 79
3
170
0
171
3
172
1
173
0
174
0
175
0
176
0
177
0
178
0
179
2
271
2
272
2
273
2
274
3
275
0
276
0
277
2
278
46
279
2
280
0
281
0
282
0
283
0
284
8
285
0
286
0
288
1
289
3
290
0
340
4C
371
-2
372
-2
  0
DIMSTYLE
105
80
330
4
100
AcDbSymbolTableRecord
100
AcDbDimStyleTableRecord
  2
EZ_M_10_H25_CM
 70
0
 40
1.0
 41
0.025
 42
0.0125
 43
3.75
 44
0.037500000000000006
 45
0.0
 46
0.0
 47
0.0
 48
0.0
 49
2.5
140
0.025
141
2.5
142
0.0125
143
0.03937007874
144
100.0
145
0.0
146
0.5
147
0.010000000000000002
148
0.0
 69
0
 70
0
 71
0
 72
0
 73
0
 74
0
 75
0
 76
0
 77
1
 78
12
 79
3
170
0
171
3
172
1
173
0
174
0
175
0
176
0
177
0
178
0
179
2
271
2
272
2
273
2
274
3
275
0
276
0
277
2
278
46
279
2
280
0
281
0
282
0
283
0
284
8
285
0
286
0
288
1
289
3
290
0
340
4C
371
-2
372
-2
  0
DIMSTYLE
105
81
330
4
100
AcDbSymbolTableRecord
100
AcDbDimStyleTableRecord
  2
EZ_M_5_H25_CM
 70
0
 40
1.0
 41
0.0125
 42
0.00625
 43
3.75
 44
0.018750000000000003
 45
0.0
 46
0.0
 47
0.0
 48
0.0
 49
2.5
140
0.0125
141
2.5
142
0.00625
143
0.03937007874
144
100.0
145
0.0
146
0.5
147
0.005000000000000001
148
0.0
 69
0
 70
0
 71
0
 72
0
 73
0
 74
0
 75
0
 76
0
 77
1
 78
12
 79
3
170
0
171
3
172
1
173
0
174
0
175
0
176
0
177
0
178
0
179
2
271
2
272
2
273
2
274
3
275
0
276
0
277
2
278
46
279
2
280
0
281
0
282
0
283
0
284
8
285
0
286
0
288
1
289
3
290
0
340
4C
371
-2
372
-2
  0
DIMSTYLE
105
82
330
4
100
AcDbSymbolTableRecord
100
AcDbDimStyleTableRecord
  2
EZ_M_1_H25_CM
 70
0
 40
1.0
 41
0.0025
 42
0.00125
 43
3.75
 44
0.00375
 45
0.0
 46
0.0
 47
0.0
 48
0.0
 49
2.5
140
0.0025
141
2.5
142
0.00125
143
0.03937007874
144
100.0
145
0.0
146
0.5
147
0.001
148
0.0
 69
0
 70
0
 71
0
 72
0
 73
0
 74
0
 75
0
 76
0
 77
1
 78
12
 79
3
170
0
171
3
172
1
173
0
174
0
175
0
176
0
177
0
178
0
179
2
271
2
272
2
273
2
274
3
275
0
276
0
277
2
278
46
279
2
280
0
281
0
282
0
283
0
284
8
285
0
286
0
288
1
289
3
290
0
340
4C
371
-2
372
-2
  0
DIMSTYLE
105
83
330
4
100
AcDbSymbolTableRecord
100
AcDbDimStyleTableRecord
  2
EZ_RADIUS
 70
0
 40
1.0
 41
0.25
 42
0.125
 43
3.75
 44
0.375
 45
0.0
 46
0.0
 47
0.0
 48
0.0
 49
2.5
140
0.25
141
0.0
142
0.0
143
0.03937007874
144
100.0
145
0.0
146
0.5
147
0.1
148
0.0
 69
0
 70
0
 71
0
 72
0
 73
0
 74
0
 75
0
 76
0
 77
1
 78
12
 79
3
170
0
171
3
172
0
173
0
174
0
175
0
176
0
177
0
178
0
179
2
271
2
272
2
273
2
274
3
275
0
276
0
277
2
278
46
279
1
280
0
281
0
282
0
283
0
284
8
285
0
286
0
288
1
289
3
290
0
340
4C
342
84
371
-2
372
-2
  0
DIMSTYLE
105
88
330
4
100
AcDbSymbolTableRecord
100
AcDbDimStyleTableRecord
  2
EZ_RADIUS_INSIDE
 70
0
 40
1.0
 41
0.25
 42
0.125
 43
3.75
 44
0.375
 45
0.0
 46
0.0
 47
0.0
 48
0.0
 49
2.5
140
0.25
141
0.0
142
0.0
143
0.03937007874
144
100.0
145
0.0
146
0.5
147
0.1
148
0.0
 69
0
 70
0
 71
0
 72
0
 73
0
 74
0
 75
0
 76
0
 77
0
 78
12
 79
3
170
0
171
3
172
0
173
0
174
1
175
0
176
0
177
0
178
0
179
2
271
2
272
2
273
2
274
3
275
0
276
0
277
2
278
46
279
0
280
0
281
0
282
0
283
0
284
8
285
0
286
0
288
1
289
0
290
0
340
4C
342
84
371
-2
372
-2
  0
DIMSTYLE
105
89
330
4
100
AcDbSymbolTableRecord
100
AcDbDimStyleTableRecord
  2
EZ_CURVED
 70
0
 40
1.0
 41
0.25
 42
0.125
 43
3.75
 44
0.375
 45
0.0
 46
0.0
 47
0.0
 48
0.0
 49
2.5
140
0.25
141
2.5
142
0.0
143
0.03937007874
144
100.0
145
0.0
146
0.5
147
0.1
148
0.0
 69
0
 70
0
 71
0
 72
0
 73
0
 74
0
 75
0
 76
0
 77
1
 78
12
 79
2
 90
2
170
0
171
3
172
1
173
0
174
0
175
0
176
0
177
0
178
0
179
2
271
2
272
2
273
2
274
3
275
0
276
0
277
2
278
46
279
2
280
0
281
0
282
0
283
0
284
8
285
0
286
0
288
1
289
3
290
0
340
4C
371
-2
372
-2
  0
ENDTAB
  0
TABLE
  2
BLOCK_RECORD
  5
9
330
0
100
AcDbSymbolTable
 70
5
  0
BLOCK_RECORD
  5
17
330
9
100
AcDbSymbolTableRecord
100
AcDbBlockTableRecord
  2
*Model_Space
340
1A
 70
0
280
1
281
0
  0
BLOCK_RECORD
  5
1B
330
9
100
AcDbSymbolTableRecord
100
AcDbBlockTableRecord
  2
*Paper_Space
340
1E
 70
0
280
1
281
0
  0
BLOCK_RECORD
  5
74
330
9
100
AcDbSymbolTableRecord
100
AcDbBlockTableRecord
  2
_ARCHTICK
340
0
 70
0
280
1
281
0
  0
BLOCK_RECORD
  5
78
330
9
100
AcDbSymbolTableRecord
100
AcDbBlockTableRecord
  2
_CLOSEDFILLED
340
0
 70
0
280
1
281
0
  0
BLOCK_RECORD
  5
84
330
9
100
AcDbSymbolTableRecord
100
AcDbBlockTableRecord
  2
_CLOSEDBLANK
340
0
 70
0
280
1
281
0
  0
ENDTAB
  0
ENDSEC
  0
SECTION
  2
BLOCKS
  0
BLOCK
  5
18
330
17
100
AcDbEntity
  8
0
100
AcDbBlockBegin
  2
*Model_Space
 70
0
 10
0.0
 20
0.0
 30
0.0
  3
*Model_Space
  1

  0
ENDBLK
  5
19
330
17
100
AcDbEntity
  8
0
100
AcDbBlockEnd
  0
BLOCK
  5
1C
330
1B
100
AcDbEntity
  8
0
100
AcDbBlockBegin
  2
*Paper_Space
 70
0
 10
0.0
 20
0.0
 30
0.0
  3
*Paper_Space
  1

  0
ENDBLK
  5
1D
330
1B
100
AcDbEntity
  8
0
100
AcDbBlockEnd
  0
BLOCK
  5
75
330
74
100
AcDbEntity
  8
0
100
AcDbBlockBegin
  2
_ARCHTICK
 70
0
 10
0.0
 20
0.0
 30
0.0
  3
_ARCHTICK
  1

  0
LWPOLYLINE
  5
77
330
74
100
AcDbEntity
  8
0
  6
BYBLOCK
 62
0
100
AcDbPolyline
 90
2
 70
0
 43
0.15
 10
-0.5
 20
-0.5
 10
0.5
 20
0.5
  0
ENDBLK
  5
76
330
74
100
AcDbEntity
  8
0
100
AcDbBlockEnd
  0
BLOCK
  5
79
330
78
100
AcDbEntity
  8
0
100
AcDbBlockBegin
  2
_CLOSEDFILLED
 70
0
 10
0.0
 20
0.0
 30
0.0
  3
_CLOSEDFILLED
  1

  0
SOLID
  5
7B
330
78
100
AcDbEntity
  8
0
  6
BYBLOCK
 62
0
100
AcDbTrace
 10
-1.0
 20
0.16439898372402537
 30
0.0
 11
0.0
 21
0.0
 31
0.0
 12
-1.0
 22
-0.16439898372402537
 32
0.0
 13
-1.0
 23
-0.16439898372402537
 33
0.0
  0
ENDBLK
  5
7A
330
78
100
AcDbEntity
  8
0
100
AcDbBlockEnd
  0
BLOCK
  5
85
330
84
100
AcDbEntity
  8
0
100
AcDbBlockBegin
  2
_CLOSEDBLANK
 70
0
 10
0.0
 20
0.0
 30
0.0
  3
_CLOSEDBLANK
  1

  0
LWPOLYLINE
  5
87
330
84
100
AcDbEntity
  8
0
  6
BYBLOCK
 62
0
100
AcDbPolyline
 90
3
 70
1
 10
-1.0
 20
0.16439898372402537
 10
0.0
 20
0.0
 10
-1.0
 20
-0.16439898372402537
  0
ENDBLK
  5
86
330
84
100
AcDbEntity
  8
0
100
AcDbBlockEnd
  0
ENDSEC
  0
SECTION
  2
ENTITIES
  0
LWPOLYLINE
  5
8B
330
17
100
AcDbEntity
  8
OUTER
 62
7
370
25
100
AcDbPolyline
 90
1466
 70
1
 10
385.225
 20
-11.128
 10
385.334
 20
-11.08
 10
385.3030170892282
 20
-10.96335845356493
 10
385.321
 20
-10.954
 10
385.3112222222222
 20
-10.936888888888822
 10
385.30980566716005
 20
-10.93122266864031
 10
385.32757046701875
 20
-10.920955886921407
 10
385.318
 20
-10.924
 10
385.308
 20
-10.924
 10
385.3092222222222
 20
-10.9288888888889
 10
385.29306896551725
 20
-10.936965517241372
 10
385.288
 20
-10.929
 10
384.493
 20
-11.142
 10
384.493
 20
-11.147
 10
384.474
 20
-11.148
 10
384.425
 20
-11.148
 10
378.153
 20
-11.155
 10
378.133
 20
-11.155
 10
376.8473150850708
 20
-11.154705915853919
 10
376.515
 20
-11.155
 10
376.053
 20
-11.155
 10
376.043
 20
-11.156
 10
376.033
 20
-11.155
 10
374.64351527468295
 20
-11.154331978497444
 10
373.953
 20
-11.154
 10
373.943
 20
-11.156
 10
373.93405799439586
 20
-11.154211598879172
 10
372.748
 20
-11.154
 10
372.738
 20
-11.156
 10
372.728
 20
-11.154
 10
372.71547459587606
 20
-11.154004831525558
 10
372.716
 20
-11.152
 10
372.668
 20
-11.139
 10
371.865
 20
-10.924
 10
371.8167350620282
 20
-10.911985025792607
 10
371.806
 20
-10.907
 10
371.797
 20
-10.904
 10
371.789
 20
-10.897
 10
370.4828317209013
 20
-10.143384931104265
 10
370.009
 20
-9.87
 10
370.0062577181208
 20
-9.868781208053687
 10
370.0
 20
-9.866
 10
369.9952558672009
 20
-9.862441900400693
 10
369.992
 20
-9.86
 10
368.1890341701236
 20
-8.821690202283708
 10
368.178
 20
-8.841
 10
368.191
 20
-8.849
 10
368.124
 20
-8.964
 10
368.081
 20
-8.939
 10
368.148
 20
-8.824
 10
366.976
 20
-8.147
 10
366.963
 20
-8.14
 10
366.97391256240724
 20
-8.121532586695453
 10
368.171946242997
 20
-8.811844074755163
 10
368.181
 20
-8.816
 10
368.173
 20
-8.81
 10
366.976
 20
-8.118
 10
366.966
 20
-8.115
 10
366.958
 20
-8.108
 10
366.95618898461373
 20
-8.11132019487491
 10
366.822
 20
-8.034
 10
366.726
 20
-7.982
 10
366.6306782291191
 20
-7.938151985394798
 10
366.626
 20
-7.936
 10
366.566
 20
-7.901
 10
366.475
 20
-7.853
 10
366.38
 20
-7.811
 10
366.283
 20
-7.777
 10
366.183
 20
-7.751
 10
366.082
 20
-7.732
 10
365.98
 20
-7.72
 10
365.877
 20
-7.716
 10
354.348
 20
-7.716
 10
354.286
 20
-7.713
 10
354.22378980411855
 20
-7.7119966097438475
 10
354.223
 20
-7.709
 10
354.208
 20
-7.713
 10
354.202
 20
-7.689
 10
354.193
 20
-7.693
 10
354.186
 20
-7.693700000000001
 10
354.186
 20
-7.685
 10
354.075
 20
-7.69
 10
353.966
 20
-7.702
 10
353.857
 20
-7.721
 10
353.749
 20
-7.746
 10
353.644
 20
-7.777
 10
353.54
 20
-7.816
 10
353.439
 20
-7.86
 10
353.341
 20
-7.91
 10
353.34543902439026
 20
-7.918138211382114
 10
353.339
 20
-7.921
 10
353.329
 20
-7.922
 10
353.33016972477066
 20
-7.926678899082577
 10
353.3009657794677
 20
-7.939790874524721
 10
353.298
 20
-7.935
 10
353.29
 20
-7.941
 10
353.281
 20
-7.945
 10
353.1854772490446
 20
-8.00011340743325
 10
353.182
 20
-8.002
 10
352.6749187296096
 20
-8.294688463309503
 10
351.4993968208912
 20
-8.9732023843316
 10
351.493
 20
-8.978
 10
351.48467389162573
 20
-8.981700492610788
 10
349.682
 20
-10.022
 10
349.675
 20
-10.028
 10
349.665
 20
-10.032
 10
348.107
 20
-10.931
 10
348.09
 20
-10.941
 10
348.085
 20
-10.944
 10
348.06670374115265
 20
-10.953932254802837
 10
348.066
 20
-10.951
 10
348.056
 20
-10.956
 10
348.046
 20
-10.957
 10
348.0480575539568
 20
-10.964054470709147
 10
348.0326753507014
 20
-10.972404809619233
 10
348.027
 20
-10.962
 10
347.233
 20
-11.174
 10
347.233
 20
-11.186050420168067
 10
347.217
 20
-11.188
 10
347.214
 20
-11.18
 10
347.205
 20
-11.184
 10
347.195
 20
-11.185
 10
347.1955770833333
 20
-11.187308333333334
 10
347.175
 20
-11.188
 10
347.168
 20
-11.188
 10
347.158
 20
-11.19
 10
347.148
 20
-11.188
 10
345.093
 20
-11.188
 10
345.083
 20
-11.19
 10
345.073
 20
-11.188
 10
344.687
 20
-11.188
 10
344.677
 20
-11.19
 10
344.667
 20
-11.188
 10
344.652
 20
-11.188
 10
344.6402422425952
 20
-11.18759802538787
 10
344.634
 20
-11.209
 10
344.649
 20
-11.213
 10
344.621109375
 20
-11.315
 10
344.614
 20
-11.341
 10
344.566
 20
-11.328
 10
344.5687932576539
 20
-11.317784657722735
 10
344.5977446941323
 20
-11.211905118601747
 10
344.618
 20
-11.213
 10
344.618
 20
-11.193714285714341
 10
344.618
 20
-11.188
 10
344.602
 20
-11.186290598290597
 10
344.602
 20
-11.174
 10
343.805
 20
-10.96
 10
343.7993093622795
 20
-10.970432835820892
 10
343.784
 20
-10.963
 10
343.786
 20
-10.955
 10
343.776
 20
-10.954
 10
343.767
 20
-10.949
 10
343.76594003350084
 20
-10.952785594639867
 10
343.755
 20
-10.947
 10
343.742
 20
-10.939
 10
343.733
 20
-10.936
 10
343.727000980873
 20
-10.930750858263892
 10
343.725
 20
-10.929
 10
342.5012753036295
 20
-10.219404858291316
 10
341.947
 20
-9.898
 10
341.938
 20
-9.894
 10
341.93
 20
-9.888
 10
340.131
 20
-8.844
 10
340.122
 20
-8.84
 10
340.114
 20
-8.834
 10
338.595
 20
-7.953
 10
338.586
 20
-7.949
 10
338.578
 20
-7.943
 10
338.565
 20
-7.935
 10
338.535
 20
-7.918
 10
338.4917647058816
 20
-7.895941176470201
 10
338.46
 20
-7.879
 10
338.44699665551866
 20
-7.873100334448295
 10
338.437
 20
-7.868
 10
338.3677752808969
 20
-7.837157303369906
 10
338.352
 20
-7.83
 10
338.349911047346
 20
-7.829197991391778
 10
338.336
 20
-7.823
 10
338.2897777777773
 20
-7.806111111110926
 10
338.24
 20
-7.787
 10
338.232
 20
-7.785
 10
338.126
 20
-7.753
 10
338.019
 20
-7.727
 10
338.011
 20
-7.726
 10
337.91
 20
-7.708
 10
337.8954081632652
 20
-7.706408163265291
 10
337.893
 20
-7.706
 10
337.873333333334
 20
-7.704000000000075
 10
337.8
 20
-7.696
 10
337.7903561643835
 20
-7.695561643835613
 10
337.775
 20
-7.694
 10
337.7020645161291
 20
-7.691548387096776
 10
337.69
 20
-7.691
 10
337.656
 20
-7.69
 10
337.641
 20
-7.69
 10
337.631
 20
-7.692
 10
337.621
 20
-7.69
 10
335.566
 20
-7.69
 10
335.556
 20
-7.692
 10
335.546
 20
-7.69
 10
333.466
 20
-7.69
 10
333.456
 20
-7.692
 10
333.446
 20
-7.69
 10
331.366
 20
-7.69
 10
331.356
 20
-7.692
 10
331.346
 20
-7.69
 10
329.266
 20
-7.69
 10
329.256
 20
-7.692
 10
329.246
 20
-7.69
 10
327.166
 20
-7.69
 10
327.156
 20
-7.692
 10
327.146
 20
-7.69
 10
325.066
 20
-7.69
 10
325.056
 20
-7.692
 10
325.046
 20
-7.69
 10
322.966
 20
-7.69
 10
322.956
 20
-7.692
 10
322.946
 20
-7.69
 10
320.866
 20
-7.69
 10
320.856
 20
-7.692
 10
320.846
 20
-7.69
 10
318.766
 20
-7.69
 10
318.756
 20
-7.692
 10
318.746
 20
-7.69
 10
316.666
 20
-7.69
 10
316.656
 20
-7.691
 10
316.646
 20
-7.69
 10
314.566
 20
-7.69
 10
314.556
 20
-7.691
 10
314.546
 20
-7.69
 10
312.466
 20
-7.69
 10
312.456
 20
-7.691
 10
312.446
 20
-7.69
 10
310.366
 20
-7.69
 10
310.356
 20
-7.691
 10
310.346
 20
-7.69
 10
308.266
 20
-7.69
 10
308.256
 20
-7.691
 10
308.246
 20
-7.69
 10
306.166
 20
-7.69
 10
306.156
 20
-7.691
 10
306.146
 20
-7.69
 10
304.066
 20
-7.69
 10
304.056
 20
-7.691
 10
304.046
 20
-7.69
 10
302.29275728544917
 20
-7.689157094848774
 10
301.966
 20
-7.689
 10
301.956
 20
-7.691
 10
301.94674423704976
 20
-7.6891488474099505
 10
299.866
 20
-7.689
 10
299.856
 20
-7.691
 10
299.84649393310923
 20
-7.689098786621851
 10
297.766
 20
-7.689
 10
297.756
 20
-7.691
 10
297.746
 20
-7.689
 10
295.737
 20
-7.689
 10
295.737
 20
-7.714
 10
295.752
 20
-7.714
 10
295.752
 20
-7.847
 10
295.72
 20
-7.846
 10
295.704
 20
-7.714
 10
295.702
 20
-7.714
 10
295.689
 20
-7.716
 10
295.686
 20
-7.691
 10
295.676
 20
-7.694
 10
295.666
 20
-7.694
 10
294.2613594998315
 20
-7.8654487669323325
 10
293.626
 20
-7.943
 10
293.617
 20
-7.946
 10
293.607
 20
-7.946
 10
291.542
 20
-8.199
 10
291.532
 20
-8.201
 10
291.522
 20
-8.201
 10
289.458
 20
-8.454
 10
289.448
 20
-8.457
 10
289.4389478948073
 20
-8.456094789480733
 10
287.373
 20
-8.709
 10
287.363
 20
-8.712
 10
287.353
 20
-8.712
 10
285.669
 20
-8.918
 10
285.66
 20
-8.921
 10
285.650336944562
 20
-8.920121540414726
 10
285.635
 20
-8.922
 10
285.633
 20
-8.92
 10
285.605
 20
-8.926285714285715
 10
285.584
 20
-8.931
 10
285.453
 20
-8.948
 10
285.273
 20
-8.981
 10
285.094
 20
-9.022
 10
284.917
 20
-9.07
 10
284.743
 20
-9.125
 10
284.6871992285852
 20
-9.14499796432207
 10
284.68305884999745
 20
-9.145985956992833
 10
284.682
 20
-9.143
 10
284.65568649270915
 20
-9.152517651573287
 10
284.635
 20
-9.16
 10
284.62216412213746
 20
-9.168305343511433
 10
284.57
 20
-9.187
 10
284.4
 20
-9.256
 10
284.233
 20
-9.332
 10
284.07
 20
-9.414
 10
283.91
 20
-9.503
 10
283.7840789962826
 20
-9.579996282527839
 10
283.77945714285715
 20
-9.58226666666665
 10
283.778
 20
-9.58
 10
283.736
 20
-9.607
 10
283.7382325435628
 20
-9.608812586185236
 10
283.601
 20
-9.7
 10
283.453
 20
-9.808
 10
283.309
 20
-9.922
 10
283.17
 20
-10.042
 10
283.036
 20
-10.167
 10
282.99898051817644
 20
-10.204597911227062
 10
282.996
 20
-10.206999999999978
 10
282.994
 20
-10.205
 10
282.9777772397096
 20
-10.2216862677273
 10
282.959
 20
-10.241
 10
282.96109507714914
 20
-10.243075312270392
 10
282.9552181411688
 20
-10.249044075375437
 10
282.908
 20
-10.297
 10
282.784
 20
-10.433
 10
282.667
 20
-10.573
 10
282.555
 20
-10.718
 10
282.449
 20
-10.868
 10
282.3733471864656
 20
-10.984505332843003
 10
282.36944212979824
 20
-10.990519120110715
 10
282.367
 20
-10.989
 10
282.350437804878
 20
-11.014763414634201
 10
282.34
 20
-11.031
 10
282.34190840140946
 20
-11.03218711583739
 10
282.3368754661911
 20
-11.042468299010702
 10
282.256
 20
-11.179
 10
282.169
 20
-11.34
 10
282.088
 20
-11.505
 10
282.015
 20
-11.673
 10
281.968
 20
-11.796
 10
281.9619919678713
 20
-11.80828915662691
 10
281.946
 20
-11.841
 10
281.948
 20
-11.844
 10
281.944
 20
-11.859
 10
281.9437938112269
 20
-11.86106188773109
 10
281.943
 20
-11.869
 10
281.94038807879247
 20
-11.874876822716955
 10
281.93958360652914
 20
-11.87814006556699
 10
281.874
 20
-12.144
 10
281.873
 20
-12.154
 10
281.8692915676959
 20
-12.163271080760394
 10
281.371
 20
-14.183
 10
281.3707426527756
 20
-14.185573472243789
 10
281.37
 20
-14.193
 10
281.3671638954869
 20
-14.200090261282714
 10
281.366
 20
-14.203
 10
281.0980077972764
 20
-15.291888888866675
 10
280.875
 20
-16.198
 10
280.874
 20
-16.208
 10
280.87
 20
-16.217
 10
280.866
 20
-16.233
 10
280.86609588308676
 20
-16.236643557298162
 10
280.864
 20
-16.237
 10
280.86651968503935
 20
-16.25274803149606
 10
280.87
 20
-16.385
 10
280.881
 20
-16.536
 10
280.9
 20
-16.686
 10
280.926
 20
-16.835
 10
280.96
 20
-16.982
 10
281.001
 20
-17.128
 10
281.0256740050805
 20
-17.199065198983906
 10
281.023
 20
-17.202
 10
281.02927349038725
 20
-17.22042837801246
 10
281.039
 20
-17.249
 10
281.0428246418338
 20
-17.247680229226354
 10
281.05
 20
-17.271
 10
281.105
 20
-17.412
 10
281.168
 20
-17.55
 10
281.237
 20
-17.684
 10
281.313
 20
-17.815
 10
281.396
 20
-17.942
 10
281.485
 20
-18.064
 10
281.50219914802983
 20
-18.085363152289673
 10
281.499
 20
-18.087
 10
281.51681650089256
 20
-18.109414307574525
 10
281.53
 20
-18.126
 10
281.53278429874274
 20
-18.12380559505867
 10
281.58
 20
-18.182
 10
281.68
 20
-18.295
 10
281.787
 20
-18.403
 10
281.898
 20
-18.505
 10
282.015
 20
-18.602
 10
282.136
 20
-18.692
 10
282.2417224199288
 20
-18.76332068011073
 10
282.24
 20
-18.766
 10
282.282
 20
-18.793
 10
282.2837983348751
 20
-18.79018038852914
 10
282.391
 20
-18.855
 10
282.525
 20
-18.926
 10
282.661
 20
-18.991
 10
282.801
 20
-19.048
 10
282.91969
 20
-19.090329999999998
 10
282.942
 20
-19.101
 10
282.944
 20
-19.099
 10
282.958
 20
-19.104
 10
282.968
 20
-19.105
 10
282.9759732300105
 20
-19.109429572228066
 10
284.1600330933816
 20
-19.495666366675586
 10
284.931
 20
-19.747
 10
284.941
 20
-19.749
 10
284.95
 20
-19.753
 10
286.927
 20
-20.398
 10
286.937
 20
-20.4
 10
286.94356040859464
 20
-20.403644671441437
 10
286.946
 20
-20.405
 10
288.924
 20
-21.05
 10
288.934
 20
-21.051
 10
288.9423717271339
 20
-21.05565095951885
 10
290.92
 20
-21.701
 10
290.93
 20
-21.702
 10
290.939
 20
-21.707
 10
291.4374148936129
 20
-21.869526595743352
 10
292.917
 20
-22.352
 10
292.927
 20
-22.354
 10
292.936
 20
-22.358
 10
294.913
 20
-23.003
 10
294.923
 20
-23.005
 10
294.9296012680522
 20
-23.008667371140078
 10
294.932
 20
-23.01
 10
296.91
 20
-23.655
 10
296.92
 20
-23.656
 10
296.92841258659143
 20
-23.66067365921749
 10
298.906
 20
-24.306
 10
298.916
 20
-24.308
 10
298.925
 20
-24.312
 10
299.33826595740766
 20
-24.446760638285102
 10
300.903
 20
-24.957
 10
300.913
 20
-24.959
 10
300.922
 20
-24.963
 10
302.899
 20
-25.608
 10
302.909
 20
-25.61
 10
302.9156421275097
 20
-25.61369007083872
 10
302.918
 20
-25.615
 10
304.896
 20
-26.26
 10
304.906
 20
-26.261
 10
304.91445344604915
 20
-26.26569635891618
 10
306.892
 20
-26.911
 10
306.902
 20
-26.913
 10
306.911
 20
-26.917
 10
307.2391170212411
 20
-27.023994680839483
 10
308.889
 20
-27.562
 10
308.899
 20
-27.564
 10
308.908
 20
-27.568
 10
309.58453042782327
 20
-27.78906153584917
 10
310.885
 20
-28.214
 10
310.88822360588597
 20
-28.2143223605886
 10
310.895
 20
-28.215
 10
310.9016829869673
 20
-28.218712770537365
 10
310.904
 20
-28.22
 10
312.881
 20
-28.865
 10
312.8838290632887
 20
-28.865282906328872
 10
312.891
 20
-28.866
 10
312.9
 20
-28.871
 10
314.878
 20
-29.516
 10
314.888
 20
-29.518
 10
314.897
 20
-29.522
 10
316.874
 20
-30.167
 10
316.884
 20
-30.169
 10
316.88891252788545
 20
-30.171729182158572
 10
316.893
 20
-30.174
 10
318.871
 20
-30.819
 10
318.8741821753417
 20
-30.819318217534168
 10
318.881
 20
-30.82
 10
318.8877238464248
 20
-30.823735470236002
 10
318.89
 20
-30.825
 10
320.043
 20
-31.201
 10
320.0463035295121
 20
-31.201660705902427
 10
320.053
 20
-31.203
 10
320.062
 20
-31.207
 10
320.078
 20
-31.212
 10
320.095
 20
-31.212
 10
320.105
 20
-31.211
 10
320.115
 20
-31.212
 10
320.1186654855738
 20
-31.212001783691278
 10
322.17
 20
-31.212091760422833
 10
322.17454020216195
 20
-31.21209195956761
 10
322.18
 20
-31.211
 10
322.1854621931691
 20
-31.21209243863382
 10
322.19
 20
-31.212092637673532
 10
324.27
 20
-31.212183871745946
 10
324.2740797465301
 20
-31.21218405069397
 10
324.28
 20
-31.211
 10
324.2859228508127
 20
-31.212184570162545
 10
324.29
 20
-31.212184748996645
 10
326.37
 20
-31.212275983069063
 10
326.3736192908983
 20
-31.212276141820332
 10
326.38
 20
-31.211
 10
326.38638350845633
 20
-31.21227670169127
 10
326.39
 20
-31.212276860319758
 10
328.47
 20
-31.212368094392176
 10
328.47315883526653
 20
-31.212368232946698
 10
328.48
 20
-31.211
 10
328.4868441661
 20
-31.212368833219998
 10
328.49
 20
-31.21236897164287
 10
330.57
 20
-31.21246020571529
 10
330.5726983796347
 20
-31.21246032407306
 10
330.58
 20
-31.211
 10
330.5873048237436
 20
-31.212460964748722
 10
330.59
 20
-31.212461082965984
 10
332.67
 20
-31.213
 10
332.6722379240029
 20
-31.212552415199422
 10
332.68
 20
-31.211
 10
332.68776548138726
 20
-31.212553096277446
 10
332.69
 20
-31.213
 10
334.77
 20
-31.213
 10
334.78
 20
-31.211
 10
334.7882261390309
 20
-31.21264522780617
 10
336.87
 20
-31.213
 10
336.88
 20
-31.211
 10
336.88868679667445
 20
-31.2127373593349
 10
338.97
 20
-31.213
 10
338.98
 20
-31.211
 10
338.98914745431813
 20
-31.212829490863623
 10
341.07
 20
-31.213
 10
341.08
 20
-31.212
 10
341.089216051956
 20
-31.212921605195604
 10
342.8765000000405
 20
-31.213
 10
343.17
 20
-31.213
 10
343.18
 20
-31.212
 10
343.19
 20
-31.213
 10
345.27
 20
-31.213
 10
345.28
 20
-31.212
 10
345.29
 20
-31.213
 10
347.37
 20
-31.213
 10
347.38
 20
-31.212
 10
347.39
 20
-31.213
 10
349.47
 20
-31.213
 10
349.48
 20
-31.212
 10
349.49
 20
-31.213
 10
351.57
 20
-31.213
 10
351.58
 20
-31.212
 10
351.59
 20
-31.213
 10
353.67
 20
-31.213
 10
353.68
 20
-31.212
 10
353.69
 20
-31.213
 10
354.7756036875237
 20
-31.213521924849772
 10
355.77
 20
-31.214
 10
355.77217181573
 20
-31.21356563685399
 10
355.78
 20
-31.212
 10
355.78783161866323
 20
-31.213566323732643
 10
355.79
 20
-31.214
 10
357.87
 20
-31.214
 10
357.88
 20
-31.212
 10
357.8882922763068
 20
-31.213658455261367
 10
359.97
 20
-31.214
 10
359.98
 20
-31.212
 10
359.9887529339505
 20
-31.21375058679009
 10
362.07
 20
-31.214
 10
362.08
 20
-31.212
 10
362.08921359159405
 20
-31.21384271831882
 10
364.17
 20
-31.214
 10
364.18
 20
-31.212
 10
364.19
 20
-31.214
 10
365.653
 20
-31.214
 10
365.663
 20
-31.212
 10
365.673
 20
-31.214
 10
365.675
 20
-31.214
 10
365.688
 20
-31.214
 10
365.796
 20
-31.21
 10
365.806
 20
-31.21
 10
365.918
 20
-31.198
 10
365.924
 20
-31.198
 10
366.038
 20
-31.178
 10
366.041
 20
-31.179
 10
366.157
 20
-31.152
 10
366.27
 20
-31.118
 10
366.273
 20
-31.115
 10
366.381
 20
-31.076
 10
366.387
 20
-31.072
 10
366.489
 20
-31.027
 10
366.497
 20
-31.022
 10
366.594
 20
-30.971
 10
366.605
 20
-30.965
 10
366.607
 20
-30.963
 10
366.615
 20
-30.957
 10
366.624
 20
-30.953
 10
368.404
 20
-29.926
 10
368.412
 20
-29.92
 10
368.421
 20
-29.916
 10
370.223
 20
-28.876
 10
370.23
 20
-28.87
 10
370.24
 20
-28.866
 10
371.79
 20
-27.971
 10
371.798
 20
-27.965
 10
371.808
 20
-27.961
 10
371.818
 20
-27.955
 10
371.852
 20
-28.083
 10
371.9
 20
-28.07
 10
371.9395853988283
 20
-28.059278954484
 10
372.664
 20
-27.866
 10
372.664
 20
-27.728
 10
372.66583681022877
 20
-27.715431763122478
 10
372.669
 20
-27.727
 10
372.704
 20
-27.855
 10
372.752
 20
-27.842
 10
372.718
 20
-27.714
 10
372.729
 20
-27.714
 10
372.739
 20
-27.712
 10
372.749
 20
-27.714
 10
374.804
 20
-27.714
 10
374.814
 20
-27.712
 10
374.824
 20
-27.714
 10
376.904
 20
-27.714
 10
376.914
 20
-27.713
 10
376.924
 20
-27.714
 10
379.004
 20
-27.714
 10
379.014
 20
-27.713
 10
379.024
 20
-27.714
 10
381.104
 20
-27.714
 10
381.114
 20
-27.713
 10
381.124
 20
-27.714
 10
383.204
 20
-27.714
 10
383.214
 20
-27.713
 10
383.224
 20
-27.714
 10
384.361
 20
-27.714
 10
384.377
 20
-27.714
 10
384.387
 20
-27.713
 10
384.397
 20
-27.714
 10
384.4085819672131
 20
-27.71558606557377
 10
384.375
 20
-27.843
 10
384.423
 20
-27.856
 10
384.458
 20
-27.727
 10
384.46062612035854
 20
-27.71732087067862
 10
384.463
 20
-27.7174
 10
384.463
 20
-27.728
 10
384.462
 20
-27.866
 10
385.186
 20
-28.06
 10
385.255
 20
-27.94
 10
385.26088588149236
 20
-27.92920921726409
 10
385.276
 20
-27.937
 10
385.275
 20
-27.946
 10
385.26
 20
-27.942
 10
385.226
 20
-28.07
 10
385.274
 20
-28.083
 10
385.308
 20
-27.955
 10
385.3102087397581
 20
-27.9466847444401
 10
385.32251229105213
 20
-27.953363815142573
 10
385.318
 20
-27.961
 10
385.328
 20
-27.964
 10
385.336
 20
-27.971
 10
387.116
 20
-28.997
 10
387.125
 20
-29.001
 10
387.133
 20
-29.007
 10
388.935
 20
-30.046
 10
388.945
 20
-30.05
 10
388.952
 20
-30.056
 10
390.51
 20
-30.955
 10
390.52
 20
-30.958
 10
390.528
 20
-30.965
 10
390.53352015878266
 20
-30.954879708898435
 10
390.5599998430452
 20
-30.970143395273592
 10
390.558
 20
-30.977
 10
390.568
 20
-30.978
 10
390.57619378101225
 20
-30.97947806814422
 10
390.571
 20
-30.989
 10
390.5756506849315
 20
-30.991397260273946
 10
390.668
 20
-31.039
 10
390.769
 20
-31.083
 10
390.802
 20
-31.095
 10
390.872
 20
-31.121
 10
390.899
 20
-31.131
 10
390.977
 20
-31.153
 10
390.998
 20
-31.161
 10
391.098
 20
-31.184
 10
391.2
 20
-31.201
 10
391.26365693430654
 20
-31.205992700729926
 10
391.303
 20
-31.211
 10
391.396
 20
-31.213272727272727
 10
391.406
 20
-31.215
 10
391.412
 20
-31.214
 10
391.42654149710324
 20
-31.215000581360382
 10
391.461
 20
-31.215
 10
391.471
 20
-31.213
 10
391.481
 20
-31.215
 10
393.536
 20
-31.215
 10
393.546
 20
-31.213
 10
393.556
 20
-31.215
 10
395.636
 20
-31.215
 10
395.646
 20
-31.213
 10
395.656
 20
-31.215
 10
397.736
 20
-31.215
 10
397.746
 20
-31.213
 10
397.756
 20
-31.215
 10
399.836
 20
-31.215
 10
399.846
 20
-31.213
 10
399.856
 20
-31.215
 10
401.936
 20
-31.215
 10
401.946
 20
-31.213
 10
401.956
 20
-31.215
 10
404.036
 20
-31.215
 10
404.046
 20
-31.213
 10
404.056
 20
-31.215
 10
406.136
 20
-31.215
 10
406.146
 20
-31.213
 10
406.156
 20
-31.215
 10
408.236
 20
-31.215
 10
408.246
 20
-31.213
 10
408.256
 20
-31.215
 10
410.336
 20
-31.215
 10
410.346
 20
-31.213
 10
410.356
 20
-31.215
 10
412.436
 20
-31.215
 10
412.446
 20
-31.214
 10
412.456
 20
-31.215
 10
414.536
 20
-31.215
 10
414.546
 20
-31.214
 10
414.556
 20
-31.215
 10
416.636
 20
-31.215
 10
416.646
 20
-31.214
 10
416.656
 20
-31.215
 10
418.736
 20
-31.215
 10
418.746
 20
-31.214
 10
418.756
 20
-31.215
 10
420.836
 20
-31.215
 10
420.846
 20
-31.214
 10
420.856
 20
-31.215
 10
422.936
 20
-31.215
 10
422.946
 20
-31.214
 10
422.956
 20
-31.215
 10
425.036
 20
-31.215
 10
425.046
 20
-31.214
 10
425.056
 20
-31.215
 10
427.136
 20
-31.216
 10
427.156
 20
-31.216
 10
429.236
 20
-31.216
 10
429.256
 20
-31.216
 10
431.336
 20
-31.216
 10
431.356
 20
-31.216
 10
433.436
 20
-31.216
 10
433.456
 20
-31.216
 10
435.536
 20
-31.216
 10
435.556
 20
-31.216
 10
437.636
 20
-31.216
 10
437.656
 20
-31.216
 10
439.736
 20
-31.216
 10
439.756
 20
-31.216
 10
441.836
 20
-31.216
 10
441.856
 20
-31.216
 10
443.936
 20
-31.216
 10
443.956
 20
-31.216
 10
446.036
 20
-31.216
 10
446.056
 20
-31.216
 10
448.136
 20
-31.216
 10
448.146
 20
-31.215
 10
448.156
 20
-31.216
 10
450.236
 20
-31.216
 10
450.246
 20
-31.215
 10
450.256
 20
-31.216
 10
452.336
 20
-31.216
 10
452.346
 20
-31.215
 10
452.356
 20
-31.216
 10
454.436
 20
-31.216
 10
454.446
 20
-31.215
 10
454.456
 20
-31.216
 10
456.536
 20
-31.216
 10
456.546
 20
-31.215
 10
456.556
 20
-31.216
 10
458.636
 20
-31.216
 10
458.646
 20
-31.215
 10
458.656
 20
-31.216
 10
460.736
 20
-31.216
 10
460.746
 20
-31.215
 10
460.756
 20
-31.216
 10
462.03564573819835
 20
-31.216998942808896
 10
462.047
 20
-31.215
 10
462.057
 20
-31.217
 10
462.073
 20
-31.217
 10
462.074
 20
-31.219
 10
462.0871849315069
 20
-31.216626712328765
 10
462.225
 20
-31.213
 10
462.377
 20
-31.201
 10
462.528
 20
-31.182
 10
462.678
 20
-31.155
 10
462.827
 20
-31.121
 10
462.973
 20
-31.079
 10
463.03617928286855
 20
-31.056306772908368
 10
463.039
 20
-31.06
 10
463.086
 20
-31.043
 10
463.08496427072293
 20
-31.040019636161826
 10
463.117
 20
-31.03
 10
463.259
 20
-30.973
 10
463.397
 20
-30.91
 10
463.532
 20
-30.839
 10
463.664
 20
-30.762
 10
463.791
 20
-30.678
 10
463.914
 20
-30.588
 10
463.92173231989426
 20
-30.580147112125044
 10
463.924
 20
-30.583
 10
463.963
 20
-30.552
 10
463.96113460015835
 20
-30.54965320665083
 10
464.032
 20
-30.492
 10
464.145
 20
-30.39
 10
464.253
 20
-30.283
 10
464.356
 20
-30.17
 10
464.452
 20
-30.052
 10
464.542
 20
-29.929
 10
464.59994540561325
 20
-29.840060574992528
 10
464.603
 20
-29.842
 10
464.60608775373413
 20
-29.83324535618547
 10
464.627
 20
-29.802
 10
464.63
 20
-29.8
 10
464.704
 20
-29.671
 10
464.775
 20
-29.536
 10
464.839
 20
-29.398
 10
464.896
 20
-29.256
 10
464.945
 20
-29.112
 10
464.987
 20
-28.966
 10
464.99697377002695
 20
-28.918062384800805
 10
465.001
 20
-28.919
 10
465.00772952779437
 20
-28.889634787806344
 10
465.012
 20
-28.871
 10
465.0099414299515
 20
-28.870506507180146
 10
465.0100561056106
 20
-28.868505610561055
 10
465.022
 20
-28.818
 10
465.049
 20
-28.668
 10
465.069
 20
-28.516
 10
465.081
 20
-28.365
 10
465.084643454039
 20
-28.22563788300857
 10
465.085
 20
-28.212
 10
465.087
 20
-28.206
 10
465.08435891721746
 20
-28.205698668407358
 10
465.083
 20
-28.188
 10
465.0823316369804
 20
-28.185772123268116
 10
465.08
 20
-28.178
 10
465.08076382328426
 20
-28.17036176715769
 10
465.081
 20
-28.168
 10
464.873
 20
-26.124
 10
464.8723519932146
 20
-26.121839977381892
 10
464.87
 20
-26.114
 10
464.8707704918033
 20
-26.106295081967247
 10
464.871
 20
-26.104
 10
464.66
 20
-24.034
 10
464.658
 20
-24.014
 10
464.6184008883816
 20
-23.62570349792162
 10
464.447
 20
-21.945
 10
464.445
 20
-21.935
 10
464.445
 20
-21.925
 10
464.2858658743752
 20
-20.35714997182
 10
464.235
 20
-19.856
 10
464.232
 20
-19.846
 10
464.2329233120311
 20
-19.83676687968893
 10
464.16832926151324
 20
-19.20185896716044
 10
464.022
 20
-17.767
 10
464.019
 20
-17.757
 10
464.02
 20
-17.747
 10
463.809
 20
-15.678
 10
463.807
 20
-15.668
 10
463.807
 20
-15.658
 10
463.636
 20
-13.975
 10
463.633
 20
-13.965
 10
463.634
 20
-13.955
 10
463.633
 20
-13.94
 10
463.635
 20
-13.938
 10
463.62897727272724
 20
-13.90848863636357
 10
463.6264522821577
 20
-13.888709543568469
 10
463.609
 20
-13.752
 10
463.6079069767442
 20
-13.745441860465279
 10
463.604
 20
-13.715
 10
463.578
 20
-13.566
 10
463.572
 20
-13.529
 10
463.5429803921574
 20
-13.39550980392399
 10
463.54
 20
-13.381
 10
463.5388322981364
 20
-13.376428571427674
 10
463.532
 20
-13.345
 10
463.49401438848906
 20
-13.200971223020968
 10
463.493
 20
-13.197
 10
463.4795862144902
 20
-13.15203897819877
 10
463.47888775510205
 20
-13.143616071428577
 10
463.481
 20
-13.143
 10
463.4747187385405
 20
-13.121464246424575
 10
463.467
 20
-13.095
 10
463.4641988029072
 20
-13.095817015818719
 10
463.4601110541427
 20
-13.08676112592286
 10
463.4477765237022
 20
-13.045417607223932
 10
463.439
 20
-13.016
 10
463.42054621848746
 20
-12.961848739495979
 10
463.403
 20
-12.908
 10
463.3932499999997
 20
-12.881749999999164
 10
463.378
 20
-12.837
 10
463.3519212598429
 20
-12.770480314961626
 10
463.338
 20
-12.733
 10
463.3278693877551
 20
-12.709130612244836
 10
463.309
 20
-12.661
 10
463.27544552845455
 20
-12.585611382112107
 10
463.265
 20
-12.561
 10
463.2543700305819
 20
-12.538259938839799
 10
463.232
 20
-12.488
 10
463.20867159763236
 20
-12.440499999998343
 10
463.186
 20
-12.392
 10
463.1661144219312
 20
-12.353847437426126
 10
463.149
 20
-12.319
 10
463.12769688768617
 20
-12.280139377537424
 10
463.09702870375355
 20
-12.224195217836206
 10
463.09358068265874
 20
-12.217905421113802
 10
463.097
 20
-12.216
 10
463.0837998244074
 20
-12.192767690956991
 10
463.072
 20
-12.172
 10
463.07
 20
-12.174
 10
463.0679104304174
 20
-12.171078367574601
 10
463.0626114864865
 20
-12.161412162162188
 10
463.058
 20
-12.153
 10
463.04146590909045
 20
-12.125386363635638
 10
462.989
 20
-12.036
 10
462.97017227979325
 20
-12.006318652850592
 10
462.961
 20
-11.991
 10
462.94599604743007
 20
-11.968205533595647
 10
462.904
 20
-11.902
 10
462.8738275862075
 20
-11.858564986738264
 10
462.857
 20
-11.833
 10
462.83508737864014
 20
-11.802796116503929
 10
462.813
 20
-11.771
 10
462.78046575342455
 20
-11.727506849314965
 10
462.746
 20
-11.68
 10
462.7233977272733
 20
-11.65121590909165
 10
462.718
 20
-11.644
 10
462.68657142856904
 20
-11.60431746031439
 10
462.629
 20
-11.531
 10
462.6227389162563
 20
-11.523720853858954
 10
462.619
 20
-11.519
 10
462.51696698377174
 20
-11.400750233165528
 10
462.51516398679587
 20
-11.398654065949678
 10
462.517
 20
-11.397
 10
462.49596590284125
 20
-11.37341631530688
 10
462.484
 20
-11.36
 10
462.475953902143
 20
-11.355624747270332
 10
462.423499999999
 20
-11.299104651161729
 10
462.377
 20
-11.249
 10
462.35602255639094
 20
-11.228488721804453
 10
462.346
 20
-11.218
 10
462.25569565217677
 20
-11.130391304350615
 10
462.2403417935699
 20
-11.115495769881218
 10
462.212
 20
-11.088
 10
462.12866666666605
 20
-11.01419047618995
 10
462.102
 20
-10.99
 10
462.09084615384654
 20
-10.980692307692653
 10
462.072
 20
-10.964
 10
462.00779617834326
 20
-10.911388535031273
 10
461.957
 20
-10.869
 10
461.94379650238477
 20
-10.858944356120878
 10
461.928
 20
-10.846
 10
461.86675739644824
 20
-10.800272189347982
 10
461.806
 20
-10.754
 10
461.78601526717654
 20
-10.739984732825123
 10
461.7740120470222
 20
-10.731566890119474
 10
461.7703620025674
 20
-10.728296961916973
 10
461.772
 20
-10.726
 10
461.75121017907617
 20
-10.711295004712401
 10
461.731
 20
-10.697
 10
461.7294115470022
 20
-10.699227485812983
 10
461.7222678477828
 20
-10.69527875039316
 10
461.6730406976741
 20
-10.660755813953276
 10
461.652
 20
-10.646
 10
461.60776470588297
 20
-10.61780000000041
 10
461.564
 20
-10.589
 10
461.5311977077364
 20
-10.56898853868194
 10
461.492
 20
-10.544
 10
461.4525198300277
 20
-10.520990084985453
 10
461.405
 20
-10.492
 10
461.35752500000063
 20
-10.46562500000037
 10
461.329
 20
-10.449
 10
461.3044999999997
 20
-10.436166666666482
 10
461.243
 20
-10.402
 10
461.17015957446796
 20
-10.365797872340364
 10
461.161
 20
-10.361
 10
461.1490445969128
 20
-10.355303602058443
 10
461.076
 20
-10.319
 10
461.019959687906
 20
-10.293798439531683
 10
460.991
 20
-10.28
 10
460.95925348189434
 20
-10.266498607242426
 10
460.9041975348685
 20
-10.243084009082015
 10
460.89527421565094
 20
-10.237726866209895
 10
460.87772873134315
 20
-10.228453171641736
 10
460.85
 20
-10.217
 10
460.8489180327869
 20
-10.219574335782939
 10
460.8457019587084
 20
-10.218043938591878
 10
460.84152348993297
 20
-10.216429530201369
 10
460.817
 20
-10.206
 10
460.74619999999965
 20
-10.179599999999862
 10
460.667
 20
-10.149
 10
460.64
 20
-10.14
 10
460.488
 20
-10.089
 10
460.46
 20
-10.081
 10
460.307
 20
-10.037
 10
460.3000566037736
 20
-10.035301886792459
 10
460.278
 20
-10.029
 10
460.1944999999998
 20
-10.009486413043424
 10
460.123
 20
-9.992
 10
460.099935483871
 20
-9.9873870967742
 10
460.094
 20
-9.986
 10
460.0629999999998
 20
-9.97999999999997
 10
459.959
 20
-9.961
 10
459.94439130434785
 20
-9.957043478260866
 10
459.93358823529417
 20
-9.954117647058833
 10
459.911
 20
-9.948
 10
459.9102875318066
 20
-9.9504427480916
 10
459.908
 20
-9.95
 10
459.893
 20
-9.948
 10
459.883
 20
-9.948
 10
459.8745398810744
 20
-9.945461964322321
 10
457.837
 20
-9.669
 10
457.827
 20
-9.669
 10
457.81948021324587
 20
-9.666744063973752
 10
457.817
 20
-9.666
 10
456.2121425260903
 20
-9.448748551566812
 10
455.756
 20
-9.387
 10
455.74793903868664
 20
-9.385790855803
 10
455.746
 20
-9.387
 10
455.73704408447816
 20
-9.384313225343444
 10
455.0604101969942
 20
-9.292544611820174
 10
453.675
 20
-9.105
 10
453.665
 20
-9.105
 10
453.655
 20
-9.102
 10
453.3762342953994
 20
-9.064127900393904
 10
451.594
 20
-8.822
 10
451.584
 20
-8.823
 10
451.5824351939451
 20
-8.82084351939451
 10
451.574
 20
-8.82
 10
450.2740653650246
 20
-8.643395585738423
 10
449.513
 20
-8.54
 10
449.5080614947966
 20
-8.539506149479662
 10
449.503
 20
-8.541
 10
449.493
 20
-8.538
 10
447.432
 20
-8.258
 10
447.4278171160612
 20
-8.257372567409181
 10
447.422
 20
-8.258
 10
447.41338322739387
 20
-8.255414968218165
 10
446.51696292004675
 20
-8.133837775202837
 10
445.351
 20
-7.976
 10
445.346
 20
-7.976
 10
445.341
 20
-7.976
 10
445.33475000000004
 20
-7.974125
 10
445.331
 20
-7.973
 10
445.277018154334
 20
-7.965705155991079
 10
445.273
 20
-7.965125042130103
 10
445.273
 20
-7.963
 10
445.258
 20
-7.963
 10
445.258
 20
-7.938
 10
445.248
 20
-7.94
 10
445.238
 20
-7.938
 10
445.073
 20
-7.938
 10
443.183
 20
-7.938
 10
443.163
 20
-7.938
 10
442.944
 20
-7.938
 10
442.744
 20
-7.938
 10
441.083
 20
-7.938
 10
441.063
 20
-7.938
 10
438.983
 20
-7.938
 10
438.963
 20
-7.938
 10
436.883
 20
-7.938
 10
436.863
 20
-7.938
 10
434.783
 20
-7.938
 10
434.773
 20
-7.939
 10
434.763
 20
-7.938
 10
432.683
 20
-7.938
 10
432.673
 20
-7.939
 10
432.663
 20
-7.938
 10
430.583
 20
-7.938
 10
430.573
 20
-7.939
 10
430.563
 20
-7.938
 10
428.483
 20
-7.938
 10
428.473
 20
-7.939
 10
428.463
 20
-7.938
 10
427.086
 20
-7.938
 10
427.076
 20
-7.939
 10
427.066
 20
-7.938
 10
427.051
 20
-7.938
 10
427.016
 20
-7.938
 10
426.9724150943396
 20
-7.939981132075471
 10
426.932
 20
-7.941
 10
426.9174520547945
 20
-7.942479452054793
 10
426.906
 20
-7.943
 10
426.82929629629626
 20
-7.95144444444445
 10
426.814
 20
-7.953
 10
426.8115442278861
 20
-7.9533988005997
 10
426.797
 20
-7.955
 10
426.7407894736844
 20
-7.964888888888863
 10
426.697
 20
-7.972
 10
426.689
 20
-7.974
 10
426.582
 20
-7.999
 10
426.476
 20
-8.031
 10
426.468
 20
-8.034
 10
426.373
 20
-8.069
 10
426.357
 20
-8.076
 10
426.272
 20
-8.113
 10
426.26176119402965
 20
-8.118328358209066
 10
426.249
 20
-8.124
 10
426.174
 20
-8.164
 10
426.1609852941176
 20
-8.170941176470604
 10
426.144
 20
-8.18
 10
426.131
 20
-8.188
 10
426.124
 20
-8.194
 10
426.114
 20
-8.198
 10
424.59349566589736
 20
-9.075279747822144
 10
424.334
 20
-9.225
 10
424.317
 20
-9.235
 10
422.516
 20
-10.275
 10
422.498
 20
-10.285
 10
421.375
 20
-10.933
 10
421.3733964497041
 20
-10.934603550295899
 10
421.368
 20
-10.94
 10
421.358
 20
-10.943
 10
421.345
 20
-10.951
 10
421.3346440677966
 20
-10.956576271186451
 10
421.334
 20
-10.954
 10
421.324
 20
-10.958
 10
421.314
 20
-10.959
 10
421.316
 20
-10.968
 10
421.30087027027025
 20
-10.974762162162175
 10
421.295
 20
-10.964
 10
420.492
 20
-11.177
 10
420.492
 20
-11.189272727272726
 10
420.47479157894736
 20
-11.189166315789473
 10
420.473
 20
-11.182
 10
420.464
 20
-11.186
 10
420.454
 20
-11.187
 10
420.4546694736842
 20
-11.189677894736842
 10
420.442
 20
-11.19
 10
420.427
 20
-11.19
 10
420.407
 20
-11.19
 10
420.135
 20
-11.1885
 10
419.8621653418124
 20
-11.187166931637519
 10
419.853
 20
-11.189
 10
419.843
 20
-11.187
 10
419.828
 20
-11.187
 10
419.81624324324326
 20
-11.186594594594595
 10
419.817
 20
-11.184
 10
419.807
 20
-11.183
 10
419.797
 20
-11.179
 10
419.794
 20
-11.187
 10
419.778
 20
-11.185275862068966
 10
419.778
 20
-11.173
 10
418.993
 20
-10.961
 10
418.9872987551867
 20
-10.971452282157689
 10
418.9816363636358
 20
-10.968454545454247
 10
418.9718747346072
 20
-10.96328662420382
 10
418.974
 20
-10.956
 10
418.964
 20
-10.955
 10
418.955
 20
-10.95
 10
418.95393852459017
 20
-10.953790983606556
 10
418.948
 20
-10.975
 10
418.934
 20
-10.971
 10
418.9069385334292
 20
-11.069967649173268
 10
418.888
 20
-11.06
 10
418.8805765352887
 20
-11.055758020164996
 10
418.863
 20
-11.086
 10
418.962
 20
-11.14
 10
419.064
 20
-11.187
 10
419.168
 20
-11.229
 10
419.274
 20
-11.264
 10
419.382
 20
-11.294
 10
419.492
 20
-11.317
 10
419.603
 20
-11.333
 10
419.715
 20
-11.343
 10
419.827
 20
-11.347
 10
419.877
 20
-11.346
 10
420.391
 20
-11.348
 10
420.441
 20
-11.35
 10
420.556
 20
-11.348
 10
420.67
 20
-11.338
 10
420.783
 20
-11.322
 10
420.895
 20
-11.299
 10
421.006
 20
-11.27
 10
421.114
 20
-11.234
 10
421.221
 20
-11.192
 10
421.324
 20
-11.144
 10
421.425
 20
-11.09
 10
422.564
 20
-10.43
 10
422.608
 20
-10.405
 10
424.383
 20
-9.38
 10
424.426
 20
-9.355
 10
426.18925038308305
 20
-8.336744100521
 10
426.2060091883614
 20
-8.327222052067382
 10
426.2129493269021
 20
-8.325380790821898
 10
426.237
 20
-8.319
 10
426.2353622697438
 20
-8.312963794198588
 10
426.2686303955029
 20
-8.295290102389071
 10
426.276
 20
-8.308
 10
427.001
 20
-8.114
 10
427.001
 20
-8.09938888888889
 10
427.03851004702864
 20
-8.098346943138093
 10
427.04
 20
-8.104
 10
427.0621538461539
 20
-8.098
 10
442.744
 20
-8.098
 10
442.744
 20
-8.096
 10
441.098
 20
-8.096
 10
441.098
 20
-7.963
 10
442.744
 20
-7.963
 10
442.944
 20
-7.963
 10
442.944
 20
-8.096
 10
443.147
 20
-8.096
 10
443.198
 20
-8.096
 10
445.0673021914648
 20
-8.097002306805075
 10
445.076
 20
-8.098
 10
445.103
 20
-8.102
 10
445.295
 20
-8.128
 10
445.3450692260735
 20
-8.134492342127563
 10
447.376
 20
-8.41
 10
447.426
 20
-8.417
 10
448.6934684590124
 20
-8.58861685190961
 10
449.457
 20
-8.692
 10
449.4959269051318
 20
-8.697449766718448
 10
449.507
 20
-8.699
 10
449.693
 20
-8.724
 10
449.6978692933357
 20
-8.724838074284996
 10
449.7241931511025
 20
-8.728408230700733
 10
459.82
 20
-10.467
 10
459.99
 20
-10.5
 10
460.159
 20
-10.541
 10
460.326
 20
-10.589
 10
460.491
 20
-10.644
 10
460.653
 20
-10.706
 10
460.813
 20
-10.776
 10
460.969
 20
-10.852
 10
461.122
 20
-10.935
 10
461.271
 20
-11.024
 10
461.416
 20
-11.12
 10
461.556
 20
-11.222
 10
461.692
 20
-11.331
 10
461.824
 20
-11.445
 10
461.95
 20
-11.564
 10
462.07
 20
-11.689
 10
462.186
 20
-11.819
 10
462.295
 20
-11.954
 10
462.399
 20
-12.094
 10
462.496
 20
-12.238
 10
462.587
 20
-12.386
 10
462.671
 20
-12.538
 10
462.749
 20
-12.694
 10
462.819
 20
-12.852
 10
462.883
 20
-13.014
 10
462.94
 20
-13.178
 10
462.989
 20
-13.345
 10
463.032
 20
-13.514
 10
463.066
 20
-13.684
 10
463.094
 20
-13.856
 10
464.5333396303198
 20
-24.366967037203924
 10
464.53901333333334
 20
-24.408400000000086
 10
464.712
 20
-26.105
 10
464.717
 20
-26.155
 10
464.88587151886236
 20
-27.835066166304458
 10
464.891
 20
-27.905
 10
464.895
 20
-28.057
 10
464.891
 20
-28.208
 10
464.88
 20
-28.359
 10
464.861
 20
-28.509
 10
464.835
 20
-28.658
 10
464.801
 20
-28.805
 10
464.759
 20
-28.951
 10
464.711
 20
-29.094
 10
464.655
 20
-29.235
 10
464.592
 20
-29.372
 10
464.522
 20
-29.507
 10
464.446
 20
-29.637
 10
464.363
 20
-29.764
 10
464.274
 20
-29.886
 10
464.179
 20
-30.004
 10
464.078
 20
-30.116
 10
463.971
 20
-30.224
 10
463.859
 20
-30.326
 10
463.743
 20
-30.422
 10
463.621
 20
-30.512
 10
463.495
 20
-30.596
 10
463.365
 20
-30.673
 10
463.231
 20
-30.744
 10
463.094
 20
-30.808
 10
462.954
 20
-30.865
 10
462.811
 20
-30.915
 10
462.666
 20
-30.958
 10
462.53781777108435
 20
-30.988519578313248
 10
462.519
 20
-30.993
 10
462.2582082616179
 20
-31.035977624784856
 10
462.137
 20
-31.049
 10
462.016
 20
-31.056
 10
461.95570214838204
 20
-31.056996658704428
 10
461.895
 20
-31.058
 10
460.771
 20
-31.058
 10
460.721
 20
-31.058
 10
458.671
 20
-31.058
 10
458.621
 20
-31.058
 10
456.571
 20
-31.058
 10
456.521
 20
-31.058
 10
454.471
 20
-31.058
 10
454.421
 20
-31.058
 10
452.371
 20
-31.058
 10
452.321
 20
-31.058
 10
451.444
 20
-31.05669722693025
 10
451.444
 20
-29.504
 10
451.743
 20
-29.504
 10
451.743
 20
-28.904
 10
451.444
 20
-28.904
 10
451.444
 20
-22.288
 10
451.244
 20
-22.288
 10
451.244
 20
-23.038
 10
445.244
 20
-23.038
 10
445.214
 20
-23.038
 10
445.214
 20
-22.138
 10
445.174
 20
-22.138
 10
445.131
 20
-22.142
 10
445.049
 20
-22.153
 10
444.968
 20
-22.172
 10
444.889
 20
-22.199
 10
444.813
 20
-22.232
 10
444.74
 20
-22.273
 10
444.671
 20
-22.32
 10
444.607
 20
-22.373
 10
444.549
 20
-22.432
 10
444.495
 20
-22.496
 10
444.449
 20
-22.564
 10
444.408
 20
-22.637
 10
444.375
 20
-22.713
 10
444.348
 20
-22.792
 10
444.329
 20
-22.873
 10
444.318
 20
-22.956
 10
444.314
 20
-23.039
 10
444.311
 20
-22.972
 10
444.3
 20
-22.906
 10
444.283
 20
-22.841
 10
444.259
 20
-22.778
 10
444.229
 20
-22.718
 10
444.192
 20
-22.662
 10
444.15
 20
-22.61
 10
444.103
 20
-22.562
 10
444.051
 20
-22.52
 10
443.994
 20
-22.484
 10
443.935
 20
-22.453
 10
443.872
 20
-22.429
 10
443.807
 20
-22.412
 10
443.741
 20
-22.401
 10
443.714
 20
-22.39979104477612
 10
443.674
 20
-22.398
 10
443.674
 20
-23.038
 10
443.674
 20
-23.238
 10
445.244
 20
-23.238
 10
451.244
 20
-23.238
 10
451.244
 20
-28.904
 10
451.143
 20
-28.904
 10
451.143
 20
-29.504
 10
451.244
 20
-29.504
 10
451.244
 20
-31.056691529817265
 10
450.271
 20
-31.058
 10
450.221
 20
-31.058
 10
448.171
 20
-31.058
 10
448.121
 20
-31.058
 10
446.071
 20
-31.058
 10
446.021
 20
-31.058
 10
443.971
 20
-31.058
 10
443.921
 20
-31.058
 10
441.871
 20
-31.058
 10
441.821
 20
-31.058
 10
439.771
 20
-31.058
 10
439.721
 20
-31.058
 10
437.671
 20
-31.058
 10
437.621
 20
-31.058
 10
435.571
 20
-31.058
 10
435.521
 20
-31.058
 10
433.471
 20
-31.058
 10
433.421
 20
-31.058
 10
431.371
 20
-31.057
 10
431.321
 20
-31.057
 10
429.271
 20
-31.057
 10
429.221
 20
-31.057
 10
427.171
 20
-31.057
 10
427.121
 20
-31.057
 10
425.071
 20
-31.057
 10
425.021
 20
-31.057
 10
422.971
 20
-31.057
 10
422.921
 20
-31.057
 10
420.871
 20
-31.057
 10
420.821
 20
-31.057
 10
418.771
 20
-31.057
 10
418.721
 20
-31.057
 10
416.671
 20
-31.057
 10
416.621
 20
-31.057
 10
414.571
 20
-31.057
 10
414.521
 20
-31.057
 10
412.471
 20
-31.057
 10
412.421
 20
-31.057
 10
410.371
 20
-31.057
 10
410.321
 20
-31.057
 10
408.271
 20
-31.057
 10
408.221
 20
-31.057
 10
406.171
 20
-31.057
 10
406.121
 20
-31.057
 10
404.071
 20
-31.057
 10
404.021
 20
-31.057
 10
401.971
 20
-31.057
 10
401.921
 20
-31.057
 10
399.871
 20
-31.057
 10
399.821
 20
-31.057
 10
397.771
 20
-31.057
 10
397.721
 20
-31.057
 10
395.671
 20
-31.056
 10
395.621
 20
-31.056
 10
393.571
 20
-31.056
 10
393.521
 20
-31.056
 10
391.862
 20
-31.055
 10
391.709
 20
-31.051
 10
391.556
 20
-31.04
 10
391.404
 20
-31.022
 10
391.253
 20
-30.996
 10
391.18377134890216
 20
-30.98113210177765
 10
390.87320803212845
 20
-30.897914859437734
 10
390.81
 20
-30.878
 10
390.667
 20
-30.824
 10
390.526
 20
-30.764
 10
390.388
 20
-30.697
 10
390.254
 20
-30.624
 10
389.044
 20
-29.927
 10
389.001
 20
-29.902
 10
387.225
 20
-28.878
 10
387.1906300174543
 20
-28.85801745200828
 10
387.182
 20
-28.853
 10
385.4276142871446
 20
-27.84166780136164
 10
385.384
 20
-27.816
 10
385.01881202046036
 20
-27.606
 10
385.028
 20
-27.606
 10
385.029
 20
-25.238
 10
391.429
 20
-25.239
 10
391.529
 20
-25.238
 10
392.629
 20
-25.239
 10
392.829
 20
-25.239
 10
392.829
 20
-23.238
 10
397.944
 20
-23.238
 10
397.944
 20
-23.038
 10
392.829
 20
-23.038
 10
392.829
 20
-22.839
 10
391.629
 20
-22.839
 10
391.629
 20
-23.038868421052634
 10
391.529
 20
-23.039
 10
391.529
 20
-22.839
 10
390.936
 20
-22.839
 10
390.021
 20
-22.838
 10
388.686
 20
-22.838
 10
387.771
 20
-22.838
 10
386.436
 20
-22.838
 10
385.521
 20
-22.838
 10
385.029
 20
-22.838
 10
385.029
 20
-22.639
 10
385.029
 20
-20.439
 10
385.029
 20
-19.538
 10
385.521
 20
-19.538
 10
386.436
 20
-19.538
 10
387.771
 20
-19.538
 10
388.686
 20
-19.538
 10
390.021
 20
-19.538
 10
390.936
 20
-19.539
 10
391.429
 20
-19.539
 10
391.429
 20
-20.039
 10
392.629
 20
-20.039
 10
392.829
 20
-20.039
 10
395.129
 20
-20.039
 10
395.129
 20
-19.839
 10
392.829
 20
-19.839
 10
392.829
 20
-17.039
 10
392.629
 20
-17.039
 10
392.629
 20
-17.139
 10
385.029
 20
-17.138
 10
385.029
 20
-11.19550000000001
 10
385.095
 20
-11.175
  0
ENDSEC
  0
SECTION
  2
OBJECTS
  0
DICTIONARY
  5
A
330
0
100
AcDbDictionary
281
1
  3
ACAD_COLOR
350
B
  3
ACAD_GROUP
350
C
  3
ACAD_LAYOUT
350
D
  3
ACAD_MATERIAL
350
E
  3
ACAD_MLEADERSTYLE
350
F
  3
ACAD_MLINESTYLE
350
10
  3
ACAD_PLOTSETTINGS
350
11
  3
ACAD_PLOTSTYLENAME
350
12
  3
ACAD_SCALELIST
350
14
  3
ACAD_TABLESTYLE
350
15
  3
ACAD_VISUALSTYLE
350
16
  3
EZDXF_META
350
2D
  0
DICTIONARY
  5
B
330
A
100
AcDbDictionary
281
1
  0
DICTIONARY
  5
C
330
A
100
AcDbDictionary
281
1
  0
DICTIONARY
  5
D
330
A
100
AcDbDictionary
281
1
  3
Model
350
1A
  3
Layout1
350
1E
  0
DICTIONARY
  5
E
330
A
100
AcDbDictionary
281
1
  3
ByBlock
350
1F
  3
ByLayer
350
20
  3
Global
350
21
  0
DICTIONARY
  5
F
330
A
100
AcDbDictionary
281
1
  3
Standard
350
2C
  0
DICTIONARY
  5
10
330
A
100
AcDbDictionary
281
1
  3
Standard
350
22
  0
DICTIONARY
  5
11
330
A
100
AcDbDictionary
281
1
  0
ACDBDICTIONARYWDFLT
  5
12
330
A
100
AcDbDictionary
281
1
  3
Normal
350
13
100
AcDbDictionaryWithDefault
340
13
  0
ACDBPLACEHOLDER
  5
13
330
12
  0
DICTIONARY
  5
14
330
A
100
AcDbDictionary
281
1
  0
DICTIONARY
  5
15
330
A
100
AcDbDictionary
281
1
  0
DICTIONARY
  5
16
330
A
100
AcDbDictionary
281
1
  3
2dWireframe
350
5A
  3
Basic
350
5B
  3
Brighten
350
5C
  3
ColorChange
350
5D
  3
Conceptual
350
5E
  3
Dim
350
5F
  3
EdgeColorOff
350
60
  3
Facepattern
350
61
  3
Flat
350
62
  3
FlatWithEdges
350
63
  3
Gouraud
350
64
  3
GouraudWithEdges
350
65
  3
Hidden
350
66
  3
JitterOff
350
67
  3
Linepattern
350
68
  3
Modeling
350
69
  3
OverhangOff
350
6A
  3
Realistic
350
6B
  3
Shaded
350
6C
  3
Shaded with edges
350
6D
  3
Shades of Gray
350
6E
  3
Sketchy
350
6F
  3
Thicken
350
70
  3
Wireframe
350
71
  3
X-Ray
350
72
  0
LAYOUT
  5
1A
330
D
100
AcDbPlotSettings
  1

  4
A3
  6

 40
7.5
 41
20.0
 42
7.5
 43
20.0
 44
420.0
 45
297.0
 46
0.0
 47
0.0
 48
0.0
 49
0.0
140
0.0
141
0.0
142
1.0
143
1.0
 70
1024
 72
1
 73
0
 74
5
  7

 75
16
 76
0
 77
2
 78
300
147
1.0
148
0.0
149
0.0
100
AcDbLayout
  1
Model
 70
1
 71
0
 10
0.0
 20
0.0
 11
420.0
 21
297.0
 12
0.0
 22
0.0
 32
0.0
 14
1e+20
 24
1e+20
 34
1e+20
 15
-1e+20
 25
-1e+20
 35
-1e+20
146
0.0
 13
0.0
 23
0.0
 33
0.0
 16
1.0
 26
0.0
 36
0.0
 17
0.0
 27
1.0
 37
0.0
 76
1
330
17
  0
LAYOUT
  5
1E
330
D
100
AcDbPlotSettings
  1

  4
A3
  6

 40
7.5
 41
20.0
 42
7.5
 43
20.0
 44
420.0
 45
297.0
 46
0.0
 47
0.0
 48
0.0
 49
0.0
140
0.0
141
0.0
142
1.0
143
1.0
 70
0
 72
1
 73
0
 74
5
  7

 75
16
 76
0
 77
2
 78
300
147
1.0
148
0.0
149
0.0
100
AcDbLayout
  1
Layout1
 70
1
 71
1
 10
0.0
 20
0.0
 11
420.0
 21
297.0
 12
0.0
 22
0.0
 32
0.0
 14
1e+20
 24
1e+20
 34
1e+20
 15
-1e+20
 25
-1e+20
 35
-1e+20
146
0.0
 13
0.0
 23
0.0
 33
0.0
 16
1.0
 26
0.0
 36
0.0
 17
0.0
 27
1.0
 37
0.0
 76
1
330
1B
  0
MATERIAL
  5
1F
102
{ACAD_REACTORS
330
E
102
}
330
E
100
AcDbMaterial
  1
ByBlock
  2

 70
0
 40
1.0
 71
1
 41
1.0
 91
-1023410177
 42
1.0
 72
1
  3

 73
1
 74
1
 75
1
 44
0.5
 73
0
 45
1.0
 46
1.0
 77
1
  4

 78
1
 79
1
170
1
 48
1.0
171
1
  6

172
1
173
1
174
1
140
1.0
141
1.0
175
1
  7

176
1
177
1
178
1
143
1.0
179
1
  8

270
1
271
1
272
1
145
1.0
146
1.0
273
1
  9

274
1
275
1
276
1
 42
1.0
 72
1
  3

 73
1
 74
1
 75
1
 94
63
  0
MATERIAL
  5
20
102
{ACAD_REACTORS
330
E
102
}
330
E
100
AcDbMaterial
  1
ByLayer
  2

 70
0
 40
1.0
 71
1
 41
1.0
 91
-1023410177
 42
1.0
 72
1
  3

 73
1
 74
1
 75
1
 44
0.5
 73
0
 45
1.0
 46
1.0
 77
1
  4

 78
1
 79
1
170
1
 48
1.0
171
1
  6

172
1
173
1
174
1
140
1.0
141
1.0
175
1
  7

176
1
177
1
178
1
143
1.0
179
1
  8

270
1
271
1
272
1
145
1.0
146
1.0
273
1
  9

274
1
275
1
276
1
 42
1.0
 72
1
  3

 73
1
 74
1
 75
1
 94
63
  0
MATERIAL
  5
21
102
{ACAD_REACTORS
330
E
102
}
330
E
100
AcDbMaterial
  1
Global
  2

 70
0
 40
1.0
 71
1
 41
1.0
 91
-1023410177
 42
1.0
 72
1
  3

 73
1
 74
1
 75
1
 44
0.5
 73
0
 45
1.0
 46
1.0
 77
1
  4

 78
1
 79
1
170
1
 48
1.0
171
1
  6

172
1
173
1
174
1
140
1.0
141
1.0
175
1
  7

176
1
177
1
178
1
143
1.0
179
1
  8

270
1
271
1
272
1
145
1.0
146
1.0
273
1
  9

274
1
275
1
276
1
 42
1.0
 72
1
  3

 73
1
 74
1
 75
1
 94
63
  0
MLINESTYLE
  5
22
102
{ACAD_REACTORS
330
10
102
}
330
10
100
AcDbMlineStyle
  2
Standard
 70
0
  3

 62
256
 51
90.0
 52
90.0
 71
2
 49
0.5
 62
256
  6
BYLAYER
 49
-0.5
 62
256
  6
BYLAYER
  0
MLEADERSTYLE
  5
2C
102
{ACAD_REACTORS
330
F
102
}
330
F
100
AcDbMLeaderStyle
179
2
170
2
171
1
172
0
 90
2
 40
0.0
 41
0.0
173
1
 91
-1056964608
 92
-2
290
1
 42
2.0
291
1
 43
8.0
  3
Standard
 44
4.0
300

342
29
174
1
175
1
176
0
178
1
 93
-1056964608
 45
4.0
292
0
297
0
 46
4.0
 94
-1056964608
 47
1.0
 49
1.0
140
1.0
294
1
141
0.0
177
0
142
1.0
295
0
296
0
143
3.75
271
0
272
9
273
9
  0
DICTIONARY
  5
2D
330
A
100
AcDbDictionary
280
1
281
1
  3
CREATED_BY_EZDXF
350
2E
  3
WRITTEN_BY_EZDXF
350
8E
  0
DICTIONARYVAR
  5
2E
330
2D
100
DictionaryVariables
280
0
  1
1.4.2 @ 2025-08-22T12:36:26.352518+00:00
  0
VISUALSTYLE
  5
5A
102
{ACAD_REACTORS
330
16
102
}
330
16
100
AcDbVisualStyle
  2
2dWireframe
 70
4
177
3
291
0
 70
58
 90
2
176
1
 90
2
176
1
 90
0
176
1
 90
0
176
1
 40
0.6
176
1
 40
30.0
176
1
 62
7
420
16777215
176
1
 90
1
176
1
 90
4
176
1
 62
7
176
1
 62
257
176
1
 90
1
176
1
 90
1
176
1
 40
1.0
176
1
 90
8
176
1
 62
7
176
1
 40
1.0
176
1
 90
1
176
1
 90
6
176
1
 90
2
176
1
 62
7
176
1
 90
5
176
1
 90
0
176
1
 90
0
176
1
290
0
176
1
 90
1
176
1
 40
0.0
176
1
 90
0
176
1
290
1
176
1
290
1
176
1
290
0
176
1
290
0
176
1
290
0
176
1
290
0
176
1
290
0
176
1
290
0
176
1
290
0
176
1
 90
50
176
1
 40
0.0
176
1
 40
1.0
176
1
 90
0
176
1
 62
18
420
0
176
1
 90
50
176
1
 90
3
176
1
 62
5
420
255
176
1
290
0
176
1
 90
50
176
1
 90
50
176
1
 90
50
176
1
290
0
176
1
 90
50
176
1
 62
256
176
0
 40
1.0
176
0
 90
2
176
1
  1
strokes_ogs.tif
176
1
290
0
176
1
 40
1.0
176
1
 40
1.0
176
1
  0
VISUALSTYLE
  5
5B
102
{ACAD_REACTORS
330
16
102
}
330
16
100
AcDbVisualStyle
  2
Basic
 70
7
177
3
291
1
 70
58
 90
2
176
1
 90
2
176
1
 90
0
176
1
 90
1
176
1
 40
0.6
176
1
 40
30.0
176
1
 62
7
420
16777215
176
1
 90
1
176
1
 90
4
176
1
 62
7
176
1
 62
257
176
1
 90
1
176
1
 90
1
176
1
 40
1.0
176
1
 90
8
176
1
 62
7
176
1
 40
1.0
176
1
 90
1
176
1
 90
6
176
1
 90
2
176
1
 62
7
176
1
 90
5
176
1
 90
0
176
1
 90
0
176
1
290
0
176
1
 90
1
176
1
 40
0.0
176
1
 90
0
176
1
290
0
176
1
290
1
176
1
290
1
176
1
290
0
176
1
290
0
176
1
290
0
176
1
290
0
176
1
290
0
176
1
290
0
176
1
 90
50
176
1
 40
0.0
176
1
 40
1.0
176
1
 90
0
176
1
 62
18
420
0
176
1
 90
50
176
1
 90
3
176
1
 62
5
420
255
176
1
290
0
176
1
 90
50
176
1
 90
50
176
1
 90
50
176
1
290
0
176
1
 90
50
176
1
 62
256
176
0
 40
1.0
176
0
 90
2
176
1
  1
strokes_ogs.tif
176
1
290
0
176
1
 40
1.0
176
1
 40
1.0
176
1
  0
VISUALSTYLE
  5
5C
102
{ACAD_REACTORS
330
16
102
}
330
16
100
AcDbVisualStyle
  2
Brighten
 70
12
177
3
291
1
 70
58
 90
2
176
1
 90
2
176
1
 90
0
176
1
 90
2
176
1
 40
0.6
176
1
 40
30.0
176
1
 62
7
420
16777215
176
1
 90
1
176
1
 90
4
176
1
 62
7
176
1
 62
257
176
1
 90
1
176
1
 90
1
176
1
 40
1.0
176
1
 90
8
176
1
 62
7
176
1
 40
1.0
176
1
 90
1
176
1
 90
6
176
1
 90
2
176
1
 62
7
176
1
 90
5
176
1
 90
0
176
1
 90
0
176
1
290
0
176
1
 90
1
176
1
 40
0.0
176
1
 90
0
176
1
290
0
176
1
290
1
176
1
290
1
176
1
290
0
176
1
290
0
176
1
290
0
176
1
290
0
176
1
290
0
176
1
290
0
176
1
 90
50
176
1
 40
0.0
176
1
 40
1.0
176
1
 90
0
176
1
 62
18
420
0
176
1
 90
50
176
1
 90
3
176
1
 62
5
420
255
176
1
290
0
176
1
 90
50
176
1
 90
50
176
1
 90
50
176
1
290
0
176
1
 90
50
176
1
 62
256
176
0
 40
1.0
176
0
 90
2
176
1
  1
strokes_ogs.tif
176
1
290
0
176
1
 40
1.0
176
1
 40
1.0
176
1
  0
VISUALSTYLE
  5
5D
102
{ACAD_REACTORS
330
16
102
}
330
16
100
AcDbVisualStyle
  2
ColorChange
 70
16
177
3
291
1
 70
58
 90
2
176
1
 90
2
176
1
 90
0
176
1
 90
2
176
1
 40
0.6
176
1
 40
30.0
176
1
 62
7
420
16777215
176
1
 90
1
176
1
 90
4
176
1
 62
7
176
1
 62
257
176
1
 90
1
176
1
 90
1
176
1
 40
1.0
176
1
 90
8
176
1
 62
7
176
1
 40
1.0
176
1
 90
1
176
1
 90
6
176
1
 90
2
176
1
 62
7
176
1
 90
5
176
1
 90
0
176
1
 90
0
176
1
290
0
176
1
 90
1
176
1
 40
0.0
176
1
 90
0
176
1
290
0
176
1
290
1
176
1
290
1
176
1
290
0
176
1
290
0
176
1
290
0
176
1
290
0
176
1
290
0
176
1
290
0
176
1
 90
50
176
1
 40
0.0
176
1
 40
1.0
176
1
 90
0
176
1
 62
18
420
0
176
1
 90
50
176
1
 90
3
176
1
 62
5
420
255
176
1
290
0
176
1
 90
50
176
1
 90
50
176
1
 90
50
176
1
290
0
176
1
 90
50
176
1
 62
256
176
0
 40
1.0
176
0
 90
2
176
1
  1
strokes_ogs.tif
176
1
290
0
176
1
 40
1.0
176
1
 40
1.0
176
1
  0
VISUALSTYLE
  5
5E
102
{ACAD_REACTORS
330
16
102
}
330
16
100
AcDbVisualStyle
  2
Conceptual
 70
9
177
3
291
0
 70
58
 90
2
176
1
 90
2
176
1
 90
0
176
1
 90
3
176
1
 40
0.6
176
1
 40
30.0
176
1
 62
7
420
16777215
176
1
 90
1
176
1
 90
4
176
1
 62
7
176
1
 62
257
176
1
 90
1
176
1
 90
1
176
1
 40
1.0
176
1
 90
8
176
1
 62
7
176
1
 40
1.0
176
1
 90
1
176
1
 90
6
176
1
 90
2
176
1
 62
7
176
1
 90
5
176
1
 90
0
176
1
 90
0
176
1
290
0
176
1
 90
1
176
1
 40
0.0
176
1
 90
0
176
1
290
0
176
1
290
1
176
1
290
1
176
1
290
0
176
1
290
0
176
1
290
0
176
1
290
0
176
1
290
0
176
1
290
0
176
1
 90
50
176
1
 40
0.0
176
1
 40
1.0
176
1
 90
0
176
1
 62
18
420
0
176
1
 90
50
176
1
 90
3
176
1
 62
5
420
255
176
1
290
0
176
1
 90
50
176
1
 90
50
176
1
 90
50
176
1
290
0
176
1
 90
50
176
1
 62
256
176
0
 40
1.0
176
0
 90
2
176
1
  1
strokes_ogs.tif
176
1
290
0
176
1
 40
1.0
176
1
 40
1.0
176
1
  0
VISUALSTYLE
  5
5F
102
{ACAD_REACTORS
330
16
102
}
330
16
100
AcDbVisualStyle
  2
Dim
 70
11
177
3
291
1
 70
58
 90
2
176
1
 90
2
176
1
 90
0
176
1
 90
2
176
1
 40
0.6
176
1
 40
30.0
176
1
 62
7
420
16777215
176
1
 90
1
176
1
 90
4
176
1
 62
7
176
1
 62
257
176
1
 90
1
176
1
 90
1
176
1
 40
1.0
176
1
 90
8
176
1
 62
7
176
1
 40
1.0
176
1
 90
1
176
1
 90
6
176
1
 90
2
176
1
 62
7
176
1
 90
5
176
1
 90
0
176
1
 90
0
176
1
290
0
176
1
 90
1
176
1
 40
0.0
176
1
 90
0
176
1
290
0
176
1
290
1
176
1
290
1
176
1
290
0
176
1
290
0
176
1
290
0
176
1
290
0
176
1
290
0
176
1
290
0
176
1
 90
50
176
1
 40
0.0
176
1
 40
1.0
176
1
 90
0
176
1
 62
18
420
0
176
1
 90
50
176
1
 90
3
176
1
 62
5
420
255
176
1
290
0
176
1
 90
50
176
1
 90
50
176
1
 90
50
176
1
290
0
176
1
 90
50
176
1
 62
256
176
0
 40
1.0
176
0
 90
2
176
1
  1
strokes_ogs.tif
176
1
290
0
176
1
 40
1.0
176
1
 40
1.0
176
1
  0
VISUALSTYLE
  5
60
102
{ACAD_REACTORS
330
16
102
}
330
16
100
AcDbVisualStyle
  2
EdgeColorOff
 70
22
177
3
291
1
 70
58
 90
2
176
1
 90
2
176
1
 90
0
176
1
 90
2
176
1
 40
0.6
176
1
 40
30.0
176
1
 62
7
420
16777215
176
1
 90
1
176
1
 90
4
176
1
 62
7
176
1
 62
257
176
1
 90
1
176
1
 90
1
176
1
 40
1.0
176
1
 90
8
176
1
 62
7
176
1
 40
1.0
176
1
 90
1
176
1
 90
6
176
1
 90
2
176
1
 62
7
176
1
 90
5
176
1
 90
0
176
1
 90
0
176
1
290
0
176
1
 90
1
176
1
 40
0.0
176
1
 90
0
176
1
290
0
176
1
290
1
176
1
290
1
176
1
290
0
176
1
290
0
176
1
290
0
176
1
290
0
176
1
290
0
176
1
290
0
176
1
 90
50
176
1
 40
0.0
176
1
 40
1.0
176
1
 90
0
176
1
 62
18
420
0
176
1
 90
50
176
1
 90
3
176
1
 62
5
420
255
176
1
290
0
176
1
 90
50
176
1
 90
50
176
1
 90
50
176
1
290
0
176
1
 90
50
176
1
 62
256
176
0
 40
1.0
176
0
 90
2
176
1
  1
strokes_ogs.tif
176
1
290
0
176
1
 40
1.0
176
1
 40
1.0
176
1
  0
VISUALSTYLE
  5
61
102
{ACAD_REACTORS
330
16
102
}
330
16
100
AcDbVisualStyle
  2
Facepattern
 70
15
177
3
291
1
 70
58
 90
2
176
1
 90
2
176
1
 90
0
176
1
 90
2
176
1
 40
0.6
176
1
 40
30.0
176
1
 62
7
420
16777215
176
1
 90
1
176
1
 90
4
176
1
 62
7
176
1
 62
257
176
1
 90
1
176
1
 90
1
176
1
 40
1.0
176
1
 90
8
176
1
 62
7
176
1
 40
1.0
176
1
 90
1
176
1
 90
6
176
1
 90
2
176
1
 62
7
176
1
 90
5
176
1
 90
0
176
1
 90
0
176
1
290
0
176
1
 90
1
176
1
 40
0.0
176
1
 90
0
176
1
290
0
176
1
290
1
176
1
290
1
176
1
290
0
176
1
290
0
176
1
290
0
176
1
290
0
176
1
290
0
176
1
290
0
176
1
 90
50
176
1
 40
0.0
176
1
 40
1.0
176
1
 90
0
176
1
 62
18
420
0
176
1
 90
50
176
1
 90
3
176
1
 62
5
420
255
176
1
290
0
176
1
 90
50
176
1
 90
50
176
1
 90
50
176
1
290
0
176
1
 90
50
176
1
 62
256
176
0
 40
1.0
176
0
 90
2
176
1
  1
strokes_ogs.tif
176
1
290
0
176
1
 40
1.0
176
1
 40
1.0
176
1
  0
VISUALSTYLE
  5
62
102
{ACAD_REACTORS
330
16
102
}
330
16
100
AcDbVisualStyle
  2
Flat
 70
0
177
3
291
1
 70
58
 90
2
176
1
 90
2
176
1
 90
0
176
1
 90
2
176
1
 40
0.6
176
1
 40
30.0
176
1
 62
7
420
16777215
176
1
 90
1
176
1
 90
4
176
1
 62
7
176
1
 62
257
176
1
 90
1
176
1
 90
1
176
1
 40
1.0
176
1
 90
8
176
1
 62
7
176
1
 40
1.0
176
1
 90
1
176
1
 90
6
176
1
 90
2
176
1
 62
7
176
1
 90
5
176
1
 90
0
176
1
 90
0
176
1
290
0
176
1
 90
1
176
1
 40
0.0
176
1
 90
0
176
1
290
0
176
1
290
1
176
1
290
1
176
1
290
0
176
1
290
0
176
1
290
0
176
1
290
0
176
1
290
0
176
1
290
0
176
1
 90
50
176
1
 40
0.0
176
1
 40
1.0
176
1
 90
0
176
1
 62
18
420
0
176
1
 90
50
176
1
 90
3
176
1
 62
5
420
255
176
1
290
0
176
1
 90
50
176
1
 90
50
176
1
 90
50
176
1
290
0
176
1
 90
50
176
1
 62
256
176
0
 40
1.0
176
0
 90
2
176
1
  1
strokes_ogs.tif
176
1
290
0
176
1
 40
1.0
176
1
 40
1.0
176
1
  0
VISUALSTYLE
  5
63
102
{ACAD_REACTORS
330
16
102
}
330
16
100
AcDbVisualStyle
  2
FlatWithEdges
 70
1
177
3
291
1
 70
58
 90
2
176
1
 90
2
176
1
 90
0
176
1
 90
2
176
1
 40
0.6
176
1
 40
30.0
176
1
 62
7
420
16777215
176
1
 90
1
176
1
 90
4
176
1
 62
7
176
1
 62
257
176
1
 90
1
176
1
 90
1
176
1
 40
1.0
176
1
 90
8
176
1
 62
7
176
1
 40
1.0
176
1
 90
1
176
1
 90
6
176
1
 90
2
176
1
 62
7
176
1
 90
5
176
1
 90
0
176
1
 90
0
176
1
290
0
176
1
 90
1
176
1
 40
0.0
176
1
 90
0
176
1
290
0
176
1
290
1
176
1
290
1
176
1
290
0
176
1
290
0
176
1
290
0
176
1
290
0
176
1
290
0
176
1
290
0
176
1
 90
50
176
1
 40
0.0
176
1
 40
1.0
176
1
 90
0
176
1
 62
18
420
0
176
1
 90
50
176
1
 90
3
176
1
 62
5
420
255
176
1
290
0
176
1
 90
50
176
1
 90
50
176
1
 90
50
176
1
290
0
176
1
 90
50
176
1
 62
256
176
0
 40
1.0
176
0
 90
2
176
1
  1
strokes_ogs.tif
176
1
290
0
176
1
 40
1.0
176
1
 40
1.0
176
1
  0
VISUALSTYLE
  5
64
102
{ACAD_REACTORS
330
16
102
}
330
16
100
AcDbVisualStyle
  2
Gouraud
 70
2
177
3
291
1
 70
58
 90
2
176
1
 90
2
176
1
 90
0
176
1
 90
2
176
1
 40
0.6
176
1
 40
30.0
176
1
 62
7
420
16777215
176
1
 90
1
176
1
 90
4
176
1
 62
7
176
1
 62
257
176
1
 90
1
176
1
 90
1
176
1
 40
1.0
176
1
 90
8
176
1
 62
7
176
1
 40
1.0
176
1
 90
1
176
1
 90
6
176
1
 90
2
176
1
 62
7
176
1
 90
5
176
1
 90
0
176
1
 90
0
176
1
290
0
176
1
 90
1
176
1
 40
0.0
176
1
 90
0
176
1
290
0
176
1
290
1
176
1
290
1
176
1
290
0
176
1
290
0
176
1
290
0
176
1
290
0
176
1
290
0
176
1
290
0
176
1
 90
50
176
1
 40
0.0
176
1
 40
1.0
176
1
 90
0
176
1
 62
18
420
0
176
1
 90
50
176
1
 90
3
176
1
 62
5
420
255
176
1
290
0
176
1
 90
50
176
1
 90
50
176
1
 90
50
176
1
290
0
176
1
 90
50
176
1
 62
256
176
0
 40
1.0
176
0
 90
2
176
1
  1
strokes_ogs.tif
176
1
290
0
176
1
 40
1.0
176
1
 40
1.0
176
1
  0
VISUALSTYLE
  5
65
102
{ACAD_REACTORS
330
16
102
}
330
16
100
AcDbVisualStyle
  2
GouraudWithEdges
 70
3
177
3
291
1
 70
58
 90
2
176
1
 90
2
176
1
 90
0
176
1
 90
2
176
1
 40
0.6
176
1
 40
30.0
176
1
 62
7
420
16777215
176
1
 90
1
176
1
 90
4
176
1
 62
7
176
1
 62
257
176
1
 90
1
176
1
 90
1
176
1
 40
1.0
176
1
 90
8
176
1
 62
7
176
1
 40
1.0
176
1
 90
1
176
1
 90
6
176
1
 90
2
176
1
 62
7
176
1
 90
5
176
1
 90
0
176
1
 90
0
176
1
290
0
176
1
 90
1
176
1
 40
0.0
176
1
 90
0
176
1
290
0
176
1
290
1
176
1
290
1
176
1
290
0
176
1
290
0
176
1
290
0
176
1
290
0
176
1
290
0
176
1
290
0
176
1
 90
50
176
1
 40
0.0
176
1
 40
1.0
176
1
 90
0
176
1
 62
18
420
0
176
1
 90
50
176
1
 90
3
176
1
 62
5
420
255
176
1
290
0
176
1
 90
50
176
1
 90
50
176
1
 90
50
176
1
290
0
176
1
 90
50
176
1
 62
256
176
0
 40
1.0
176
0
 90
2
176
1
  1
strokes_ogs.tif
176
1
290
0
176
1
 40
1.0
176
1
 40
1.0
176
1
  0
VISUALSTYLE
  5
66
102
{ACAD_REACTORS
330
16
102
}
330
16
100
AcDbVisualStyle
  2
Hidden
 70
6
177
3
291
0
 70
58
 90
2
176
1
 90
2
176
1
 90
0
176
1
 90
1
176
1
 40
0.6
176
1
 40
30.0
176
1
 62
7
420
16777215
176
1
 90
1
176
1
 90
4
176
1
 62
7
176
1
 62
257
176
1
 90
1
176
1
 90
1
176
1
 40
1.0
176
1
 90
8
176
1
 62
7
176
1
 40
1.0
176
1
 90
1
176
1
 90
6
176
1
 90
2
176
1
 62
7
176
1
 90
5
176
1
 90
0
176
1
 90
0
176
1
290
0
176
1
 90
1
176
1
 40
0.0
176
1
 90
0
176
1
290
0
176
1
290
1
176
1
290
1
176
1
290
0
176
1
290
0
176
1
290
0
176
1
290
0
176
1
290
0
176
1
290
0
176
1
 90
50
176
1
 40
0.0
176
1
 40
1.0
176
1
 90
0
176
1
 62
18
420
0
176
1
 90
50
176
1
 90
3
176
1
 62
5
420
255
176
1
290
0
176
1
 90
50
176
1
 90
50
176
1
 90
50
176
1
290
0
176
1
 90
50
176
1
 62
256
176
0
 40
1.0
176
0
 90
2
176
1
  1
strokes_ogs.tif
176
1
290
0
176
1
 40
1.0
176
1
 40
1.0
176
1
  0
VISUALSTYLE
  5
67
102
{ACAD_REACTORS
330
16
102
}
330
16
100
AcDbVisualStyle
  2
JitterOff
 70
20
177
3
291
1
 70
58
 90
2
176
1
 90
2
176
1
 90
0
176
1
 90
2
176
1
 40
0.6
176
1
 40
30.0
176
1
 62
7
420
16777215
176
1
 90
1
176
1
 90
4
176
1
 62
7
176
1
 62
257
176
1
 90
1
176
1
 90
1
176
1
 40
1.0
176
1
 90
8
176
1
 62
7
176
1
 40
1.0
176
1
 90
1
176
1
 90
6
176
1
 90
2
176
1
 62
7
176
1
 90
5
176
1
 90
0
176
1
 90
0
176
1
290
0
176
1
 90
1
176
1
 40
0.0
176
1
 90
0
176
1
290
0
176
1
290
1
176
1
290
1
176
1
290
0
176
1
290
0
176
1
290
0
176
1
290
0
176
1
290
0
176
1
290
0
176
1
 90
50
176
1
 40
0.0
176
1
 40
1.0
176
1
 90
0
176
1
 62
18
420
0
176
1
 90
50
176
1
 90
3
176
1
 62
5
420
255
176
1
290
0
176
1
 90
50
176
1
 90
50
176
1
 90
50
176
1
290
0
176
1
 90
50
176
1
 62
256
176
0
 40
1.0
176
0
 90
2
176
1
  1
strokes_ogs.tif
176
1
290
0
176
1
 40
1.0
176
1
 40
1.0
176
1
  0
VISUALSTYLE
  5
68
102
{ACAD_REACTORS
330
16
102
}
330
16
100
AcDbVisualStyle
  2
Linepattern
 70
14
177
3
291
1
 70
58
 90
2
176
1
 90
2
176
1
 90
0
176
1
 90
2
176
1
 40
0.6
176
1
 40
30.0
176
1
 62
7
420
16777215
176
1
 90
1
176
1
 90
4
176
1
 62
7
176
1
 62
257
176
1
 90
1
176
1
 90
1
176
1
 40
1.0
176
1
 90
8
176
1
 62
7
176
1
 40
1.0
176
1
 90
1
176
1
 90
6
176
1
 90
2
176
1
 62
7
176
1
 90
5
176
1
 90
0
176
1
 90
0
176
1
290
0
176
1
 90
1
176
1
 40
0.0
176
1
 90
0
176
1
290
0
176
1
290
1
176
1
290
1
176
1
290
0
176
1
290
0
176
1
290
0
176
1
290
0
176
1
290
0
176
1
290
0
176
1
 90
50
176
1
 40
0.0
176
1
 40
1.0
176
1
 90
0
176
1
 62
18
420
0
176
1
 90
50
176
1
 90
3
176
1
 62
5
420
255
176
1
290
0
176
1
 90
50
176
1
 90
50
176
1
 90
50
176
1
290
0
176
1
 90
50
176
1
 62
256
176
0
 40
1.0
176
0
 90
2
176
1
  1
strokes_ogs.tif
176
1
290
0
176
1
 40
1.0
176
1
 40
1.0
176
1
  0
VISUALSTYLE
  5
69
102
{ACAD_REACTORS
330
16
102
}
330
16
100
AcDbVisualStyle
  2
Modeling
 70
10
177
3
291
0
 70
58
 90
2
176
1
 90
2
176
1
 90
0
176
1
 90
2
176
1
 40
0.6
176
1
 40
30.0
176
1
 62
7
420
16777215
176
1
 90
1
176
1
 90
4
176
1
 62
7
176
1
 62
257
176
1
 90
1
176
1
 90
1
176
1
 40
1.0
176
1
 90
8
176
1
 62
7
176
1
 40
1.0
176
1
 90
1
176
1
 90
6
176
1
 90
2
176
1
 62
7
176
1
 90
5
176
1
 90
0
176
1
 90
0
176
1
290
0
176
1
 90
1
176
1
 40
0.0
176
1
 90
0
176
1
290
0
176
1
290
1
176
1
290
1
176
1
290
0
176
1
290
0
176
1
290
0
176
1
290
0
176
1
290
0
176
1
290
0
176
1
 90
50
176
1
 40
0.0
176
1
 40
1.0
176
1
 90
0
176
1
 62
18
420
0
176
1
 90
50
176
1
 90
3
176
1
 62
5
420
255
176
1
290
0
176
1
 90
50
176
1
 90
50
176
1
 90
50
176
1
290
0
176
1
 90
50
176
1
 62
256
176
0
 40
1.0
176
0
 90
2
176
1
  1
strokes_ogs.tif
176
1
290
0
176
1
 40
1.0
176
1
 40
1.0
176
1
  0
VISUALSTYLE
  5
6A
102
{ACAD_REACTORS
330
16
102
}
330
16
100
AcDbVisualStyle
  2
OverhangOff
 70
21
177
3
291
1
 70
58
 90
2
176
1
 90
2
176
1
 90
0
176
1
 90
2
176
1
 40
0.6
176
1
 40
30.0
176
1
 62
7
420
16777215
176
1
 90
1
176
1
 90
4
176
1
 62
7
176
1
 62
257
176
1
 90
1
176
1
 90
1
176
1
 40
1.0
176
1
 90
8
176
1
 62
7
176
1
 40
1.0
176
1
 90
1
176
1
 90
6
176
1
 90
2
176
1
 62
7
176
1
 90
5
176
1
 90
0
176
1
 90
0
176
1
290
0
176
1
 90
1
176
1
 40
0.0
176
1
 90
0
176
1
290
0
176
1
290
1
176
1
290
1
176
1
290
0
176
1
290
0
176
1
290
0
176
1
290
0
176
1
290
0
176
1
290
0
176
1
 90
50
176
1
 40
0.0
176
1
 40
1.0
176
1
 90
0
176
1
 62
18
420
0
176
1
 90
50
176
1
 90
3
176
1
 62
5
420
255
176
1
290
0
176
1
 90
50
176
1
 90
50
176
1
 90
50
176
1
290
0
176
1
 90
50
176
1
 62
256
176
0
 40
1.0
176
0
 90
2
176
1
  1
strokes_ogs.tif
176
1
290
0
176
1
 40
1.0
176
1
 40
1.0
176
1
  0
VISUALSTYLE
  5
6B
102
{ACAD_REACTORS
330
16
102
}
330
16
100
AcDbVisualStyle
  2
Realistic
 70
8
177
3
291
0
 70
58
 90
2
176
1
 90
2
176
1
 90
0
176
1
 90
2
176
1
 40
0.6
176
1
 40
30.0
176
1
 62
7
420
16777215
176
1
 90
1
176
1
 90
4
176
1
 62
7
176
1
 62
257
176
1
 90
1
176
1
 90
1
176
1
 40
1.0
176
1
 90
8
176
1
 62
7
176
1
 40
1.0
176
1
 90
1
176
1
 90
6
176
1
 90
2
176
1
 62
7
176
1
 90
5
176
1
 90
0
176
1
 90
0
176
1
290
0
176
1
 90
1
176
1
 40
0.0
176
1
 90
0
176
1
290
0
176
1
290
1
176
1
290
1
176
1
290
0
176
1
290
0
176
1
290
0
176
1
290
0
176
1
290
0
176
1
290
0
176
1
 90
50
176
1
 40
0.0
176
1
 40
1.0
176
1
 90
0
176
1
 62
18
420
0
176
1
 90
50
176
1
 90
3
176
1
 62
5
420
255
176
1
290
0
176
1
 90
50
176
1
 90
50
176
1
 90
50
176
1
290
0
176
1
 90
50
176
1
 62
256
176
0
 40
1.0
176
0
 90
2
176
1
  1
strokes_ogs.tif
176
1
290
0
176
1
 40
1.0
176
1
 40
1.0
176
1
  0
VISUALSTYLE
  5
6C
102
{ACAD_REACTORS
330
16
102
}
330
16
100
AcDbVisualStyle
  2
Shaded
 70
27
177
3
291
0
 70
58
 90
2
176
1
 90
2
176
1
 90
0
176
1
 90
2
176
1
 40
0.6
176
1
 40
30.0
176
1
 62
7
420
16777215
176
1
 90
1
176
1
 90
4
176
1
 62
7
176
1
 62
257
176
1
 90
1
176
1
 90
1
176
1
 40
1.0
176
1
 90
8
176
1
 62
7
176
1
 40
1.0
176
1
 90
1
176
1
 90
6
176
1
 90
2
176
1
 62
7
176
1
 90
5
176
1
 90
0
176
1
 90
0
176
1
290
0
176
1
 90
1
176
1
 40
0.0
176
1
 90
0
176
1
290
0
176
1
290
1
176
1
290
1
176
1
290
0
176
1
290
0
176
1
290
0
176
1
290
0
176
1
290
0
176
1
290
0
176
1
 90
50
176
1
 40
0.0
176
1
 40
1.0
176
1
 90
0
176
1
 62
18
420
0
176
1
 90
50
176
1
 90
3
176
1
 62
5
420
255
176
1
290
0
176
1
 90
50
176
1
 90
50
176
1
 90
50
176
1
290
0
176
1
 90
50
176
1
 62
256
176
0
 40
1.0
176
0
 90
2
176
1
  1
strokes_ogs.tif
176
1
290
0
176
1
 40
1.0
176
1
 40
1.0
176
1
  0
VISUALSTYLE
  5
6D
102
{ACAD_REACTORS
330
16
102
}
330
16
100
AcDbVisualStyle
  2
Shaded with edges
 70
26
177
3
291
0
 70
58
 90
2
176
1
 90
2
176
1
 90
0
176
1
 90
2
176
1
 40
0.6
176
1
 40
30.0
176
1
 62
7
420
16777215
176
1
 90
1
176
1
 90
4
176
1
 62
7
176
1
 62
257
176
1
 90
1
176
1
 90
1
176
1
 40
1.0
176
1
 90
8
176
1
 62
7
176
1
 40
1.0
176
1
 90
1
176
1
 90
6
176
1
 90
2
176
1
 62
7
176
1
 90
5
176
1
 90
0
176
1
 90
0
176
1
290
0
176
1
 90
1
176
1
 40
0.0
176
1
 90
0
176
1
290
0
176
1
290
1
176
1
290
1
176
1
290
0
176
1
290
0
176
1
290
0
176
1
290
0
176
1
290
0
176
1
290
0
176
1
 90
50
176
1
 40
0.0
176
1
 40
1.0
176
1
 90
0
176
1
 62
18
420
0
176
1
 90
50
176
1
 90
3
176
1
 62
5
420
255
176
1
290
0
176
1
 90
50
176
1
 90
50
176
1
 90
50
176
1
290
0
176
1
 90
50
176
1
 62
256
176
0
 40
1.0
176
0
 90
2
176
1
  1
strokes_ogs.tif
176
1
290
0
176
1
 40
1.0
176
1
 40
1.0
176
1
  0
VISUALSTYLE
  5
6E
102
{ACAD_REACTORS
330
16
102
}
330
16
100
AcDbVisualStyle
  2
Shades of Gray
 70
23
177
3
291
0
 70
58
 90
2
176
1
 90
2
176
1
 90
0
176
1
 90
2
176
1
 40
0.6
176
1
 40
30.0
176
1
 62
7
420
16777215
176
1
 90
1
176
1
 90
4
176
1
 62
7
176
1
 62
257
176
1
 90
1
176
1
 90
1
176
1
 40
1.0
176
1
 90
8
176
1
 62
7
176
1
 40
1.0
176
1
 90
1
176
1
 90
6
176
1
 90
2
176
1
 62
7
176
1
 90
5
176
1
 90
0
176
1
 90
0
176
1
290
0
176
1
 90
1
176
1
 40
0.0
176
1
 90
0
176
1
290
0
176
1
290
1
176
1
290
1
176
1
290
0
176
1
290
0
176
1
290
0
176
1
290
0
176
1
290
0
176
1
290
0
176
1
 90
50
176
1
 40
0.0
176
1
 40
1.0
176
1
 90
0
176
1
 62
18
420
0
176
1
 90
50
176
1
 90
3
176
1
 62
5
420
255
176
1
290
0
176
1
 90
50
176
1
 90
50
176
1
 90
50
176
1
290
0
176
1
 90
50
176
1
 62
256
176
0
 40
1.0
176
0
 90
2
176
1
  1
strokes_ogs.tif
176
1
290
0
176
1
 40
1.0
176
1
 40
1.0
176
1
  0
VISUALSTYLE
  5
6F
102
{ACAD_REACTORS
330
16
102
}
330
16
100
AcDbVisualStyle
  2
Sketchy
 70
24
177
3
291
0
 70
58
 90
2
176
1
 90
2
176
1
 90
0
176
1
 90
1
176
1
 40
0.6
176
1
 40
30.0
176
1
 62
7
420
16777215
176
1
 90
1
176
1
 90
4
176
1
 62
7
176
1
 62
257
176
1
 90
1
176
1
 90
1
176
1
 40
1.0
176
1
 90
8
176
1
 62
7
176
1
 40
1.0
176
1
 90
1
176
1
 90
6
176
1
 90
2
176
1
 62
7
176
1
 90
5
176
1
 90
0
176
1
 90
0
176
1
290
0
176
1
 90
1
176
1
 40
0.0
176
1
 90
0
176
1
290
0
176
1
290
1
176
1
290
1
176
1
290
0
176
1
290
0
176
1
290
0
176
1
290
0
176
1
290
0
176
1
290
0
176
1
 90
50
176
1
 40
0.0
176
1
 40
1.0
176
1
 90
0
176
1
 62
18
420
0
176
1
 90
50
176
1
 90
3
176
1
 62
5
420
255
176
1
290
0
176
1
 90
50
176
1
 90
50
176
1
 90
50
176
1
290
0
176
1
 90
50
176
1
 62
256
176
0
 40
1.0
176
0
 90
2
176
1
  1
strokes_ogs.tif
176
1
290
0
176
1
 40
1.0
176
1
 40
1.0
176
1
  0
VISUALSTYLE
  5
70
102
{ACAD_REACTORS
330
16
102
}
330
16
100
AcDbVisualStyle
  2
Thicken
 70
13
177
3
291
1
 70
58
 90
2
176
1
 90
2
176
1
 90
0
176
1
 90
2
176
1
 40
0.6
176
1
 40
30.0
176
1
 62
7
420
16777215
176
1
 90
1
176
1
 90
4
176
1
 62
7
176
1
 62
257
176
1
 90
1
176
1
 90
1
176
1
 40
1.0
176
1
 90
8
176
1
 62
7
176
1
 40
1.0
176
1
 90
1
176
1
 90
6
176
1
 90
2
176
1
 62
7
176
1
 90
5
176
1
 90
0
176
1
 90
0
176
1
290
0
176
1
 90
1
176
1
 40
0.0
176
1
 90
0
176
1
290
0
176
1
290
1
176
1
290
1
176
1
290
0
176
1
290
0
176
1
290
0
176
1
290
0
176
1
290
0
176
1
290
0
176
1
 90
50
176
1
 40
0.0
176
1
 40
1.0
176
1
 90
0
176
1
 62
18
420
0
176
1
 90
50
176
1
 90
3
176
1
 62
5
420
255
176
1
290
0
176
1
 90
50
176
1
 90
50
176
1
 90
50
176
1
290
0
176
1
 90
50
176
1
 62
256
176
0
 40
1.0
176
0
 90
2
176
1
  1
strokes_ogs.tif
176
1
290
0
176
1
 40
1.0
176
1
 40
1.0
176
1
  0
VISUALSTYLE
  5
71
102
{ACAD_REACTORS
330
16
102
}
330
16
100
AcDbVisualStyle
  2
Wireframe
 70
5
177
3
291
0
 70
58
 90
2
176
1
 90
2
176
1
 90
0
176
1
 90
0
176
1
 40
0.6
176
1
 40
30.0
176
1
 62
7
420
16777215
176
1
 90
1
176
1
 90
4
176
1
 62
7
176
1
 62
257
176
1
 90
1
176
1
 90
1
176
1
 40
1.0
176
1
 90
8
176
1
 62
7
176
1
 40
1.0
176
1
 90
1
176
1
 90
6
176
1
 90
2
176
1
 62
7
176
1
 90
5
176
1
 90
0
176
1
 90
0
176
1
290
0
176
1
 90
1
176
1
 40
0.0
176
1
 90
0
176
1
290
0
176
1
290
1
176
1
290
1
176
1
290
0
176
1
290
0
176
1
290
0
176
1
290
0
176
1
290
0
176
1
290
0
176
1
 90
50
176
1
 40
0.0
176
1
 40
1.0
176
1
 90
0
176
1
 62
18
420
0
176
1
 90
50
176
1
 90
3
176
1
 62
5
420
255
176
1
290
0
176
1
 90
50
176
1
 90
50
176
1
 90
50
176
1
290
0
176
1
 90
50
176
1
 62
256
176
0
 40
1.0
176
0
 90
2
176
1
  1
strokes_ogs.tif
176
1
290
0
176
1
 40
1.0
176
1
 40
1.0
176
1
  0
VISUALSTYLE
  5
72
102
{ACAD_REACTORS
330
16
102
}
330
16
100
AcDbVisualStyle
  2
X-Ray
 70
25
177
3
291
0
 70
58
 90
2
176
1
 90
2
176
1
 90
0
176
1
 90
2
176
1
 40
0.5
176
1
 40
30.0
176
1
 62
7
420
16777215
176
1
 90
1
176
1
 90
4
176
1
 62
7
176
1
 62
257
176
1
 90
1
176
1
 90
1
176
1
 40
1.0
176
1
 90
8
176
1
 62
7
176
1
 40
1.0
176
1
 90
1
176
1
 90
6
176
1
 90
2
176
1
 62
7
176
1
 90
5
176
1
 90
0
176
1
 90
0
176
1
290
0
176
1
 90
1
176
1
 40
0.0
176
1
 90
0
176
1
290
0
176
1
290
1
176
1
290
1
176
1
290
0
176
1
290
0
176
1
290
0
176
1
290
0
176
1
290
0
176
1
290
0
176
1
 90
50
176
1
 40
0.0
176
1
 40
1.0
176
1
 90
0
176
1
 62
18
420
0
176
1
 90
50
176
1
 90
3
176
1
 62
5
420
255
176
1
290
0
176
1
 90
50
176
1
 90
50
176
1
 90
50
176
1
290
0
176
1
 90
50
176
1
 62
256
176
0
 40
1.0
176
0
 90
2
176
1
  1
strokes_ogs.tif
176
1
290
0
176
1
 40
1.0
176
1
 40
1.0
176
1
  0
DICTIONARYVAR
  5
8E
330
2D
100
DictionaryVariables
280
0
  1
1.4.2 @ 2025-08-22T12:36:26.361683+00:00
  0
ENDSEC
  0
EOF
